<svg width="46" height="64" viewBox="0 0 46 64" fill="none" xmlns="http://www.w3.org/2000/svg">
<path fill-rule="evenodd" clip-rule="evenodd" d="M10.5 22C12.433 22 14 20.433 14 18.5C14 16.567 12.433 15 10.5 15C8.567 15 7 16.567 7 18.5C7 20.433 8.567 22 10.5 22ZM10.5 24C13.5376 24 16 21.5376 16 18.5C16 15.4624 13.5376 13 10.5 13C7.46243 13 5 15.4624 5 18.5C5 21.5376 7.46243 24 10.5 24ZM11 28C6.02944 28 2 32.0294 2 37V43.5H34C34.5523 43.5 35 43.9477 35 44.5C35 45.0523 34.5523 45.5 34 45.5H1H0V44.5V37C0 30.9249 4.92487 26 11 26C17.0751 26 22 30.9249 22 37V41C22 41.5523 21.5523 42 21 42C20.4477 42 20 41.5523 20 41V37C20 32.0294 15.9706 28 11 28ZM35 32C39.9706 32 44 36.0294 44 41V48.5H25C24.4477 48.5 24 48.9477 24 49.5C24 50.0523 24.4477 50.5 25 50.5H45H46V49.5V41C46 34.9249 41.0751 30 35 30C28.9249 30 24 34.9249 24 41C24 41.5523 24.4477 42 25 42C25.5523 42 26 41.5523 26 41C26 36.0294 30.0294 32 35 32ZM39 22.5C39 24.433 37.433 26 35.5 26C33.567 26 32 24.433 32 22.5C32 20.567 33.567 19 35.5 19C37.433 19 39 20.567 39 22.5ZM41 22.5C41 25.5376 38.5376 28 35.5 28C32.4624 28 30 25.5376 30 22.5C30 19.4624 32.4624 17 35.5 17C38.5376 17 41 19.4624 41 22.5Z" fill="#14142A"/>
</svg>
