<svg width="58" height="50" viewBox="0 0 58 50" fill="none" xmlns="http://www.w3.org/2000/svg">
<path fill-rule="evenodd" clip-rule="evenodd" d="M2.16016 9.61291C2.16016 5.50676 5.53548 2.15619 9.72631 2.15619H48.274C52.4648 2.15619 55.8402 5.50676 55.8402 9.61291V29.6976C55.8402 33.8038 52.4648 37.1543 48.274 37.1543H28.8713H28.4885L28.2036 37.4099L19.5602 45.1635V42.2011V38.1543V37.1543H18.5602H9.72631C5.53548 37.1543 2.16016 33.8038 2.16016 29.6976V9.61291ZM9.72631 0.156189C4.45523 0.156189 0.160156 4.37802 0.160156 9.61291V29.6976C0.160156 34.9325 4.45523 39.1543 9.72631 39.1543H17.5602V42.2011V47.4039V49.6444L19.2279 48.1483L29.2541 39.1543H48.274C53.5451 39.1543 57.8402 34.9325 57.8402 29.6976V9.61291C57.8402 4.37802 53.5451 0.156189 48.274 0.156189H9.72631ZM27.6035 14.631L29.1411 10.7991L31.0079 14.7859C31.4562 15.7433 32.3752 16.394 33.4271 16.4989L37.4607 16.9012L34.4898 19.5098C33.6919 20.2104 33.3237 21.2805 33.5218 22.3237L34.389 26.8922L30.533 24.5992C29.588 24.0373 28.4113 24.0373 27.4663 24.5992L23.9283 26.7032L24.9845 22.4957C25.2689 21.3629 24.8701 20.1682 23.9623 19.4334L20.8336 16.9008L25.0995 16.5006C26.2185 16.3957 27.185 15.674 27.6035 14.631ZM28.1423 7.91764C28.468 7.10601 29.6051 7.07397 29.976 7.86598L32.8192 13.9378C32.9686 14.2569 33.275 14.4738 33.6256 14.5088L39.9488 15.1395C40.8188 15.2263 41.1664 16.3091 40.5093 16.886L35.8093 21.0127C35.5434 21.2462 35.4207 21.6029 35.4867 21.9507L36.7678 28.6995C36.9285 29.546 36.0148 30.1859 35.2742 29.7455L29.5108 26.3183C29.1958 26.1309 28.8036 26.1309 28.4886 26.3183L22.8841 29.651C22.1196 30.1056 21.1865 29.4107 21.4031 28.548L23.0447 22.0087C23.1395 21.6311 23.0066 21.2328 22.704 20.9879L17.6681 16.9116C16.9714 16.3476 17.3114 15.2224 18.2039 15.1387L24.9127 14.5094C25.2857 14.4744 25.6079 14.2338 25.7474 13.8862L28.1423 7.91764Z" fill="#14142A"/>
</svg>
