<svg width="189" height="44" viewBox="0 0 189 44" fill="none" xmlns="http://www.w3.org/2000/svg">
<path d="M45.0511 22C45.0511 34.1503 34.966 44 22.5255 44C10.085 44 0 34.1503 0 22C0 9.84974 10.085 0 22.5255 0C34.966 0 45.0511 9.84974 45.0511 22Z" fill="#FCFCFC"/>
<path d="M17.4127 25.3779C16.1989 25.3779 15.2148 24.4169 15.2148 23.2313C15.2148 22.0458 16.1989 21.0847 17.4127 21.0847H27.523C28.7369 21.0847 29.7209 22.0458 29.7209 23.2313C29.7209 24.4169 28.7369 25.3779 27.523 25.3779H17.4127Z" fill="#14142A"/>
<path d="M32.4798 24.8689C33.0184 25.997 32.5187 27.3381 31.3635 27.8642C30.2084 28.3903 28.8353 27.9022 28.2966 26.774L21.1341 11.7722C20.5955 10.644 21.0952 9.30299 22.2504 8.77691C23.4055 8.25083 24.7786 8.73893 25.3172 9.86712L32.4798 24.8689Z" fill="#14142A"/>
<path d="M15.7527 31.1086C15.214 32.2368 13.8409 32.7249 12.6858 32.1988C11.5306 31.6727 11.0309 30.3317 11.5695 29.2035L20.8305 9.80666C21.3691 8.67847 22.7422 8.19037 23.8974 8.71645C25.0525 9.24253 25.5523 10.5836 25.0136 11.7118L15.7527 31.1086Z" fill="#14142A"/>
<path d="M34.6136 30.107C34.6136 31.2607 33.656 32.196 32.4748 32.196C31.2935 32.196 30.3359 31.2607 30.3359 30.107C30.3359 28.9533 31.2935 28.0181 32.4748 28.0181C33.656 28.0181 34.6136 28.9533 34.6136 30.107Z" fill="#FFD033"/>
<path d="M75.2407 32.9989H81.8346V13.8389H75.2407V15.4389C74.094 14.0389 72.4148 13.2389 70.2442 13.2389C64.879 13.2389 60.9473 17.5589 60.9473 23.4389C60.9473 29.5989 65.2476 33.5989 70.2442 33.5989C72.4148 33.5989 74.053 32.6789 75.2407 31.1989V32.9989ZM71.3909 27.5589C69.1793 27.5589 67.5411 25.7589 67.5411 23.4389C67.5411 21.0789 69.1793 19.2789 71.3909 19.2789C73.6025 19.2789 75.2407 21.0789 75.2407 23.4389C75.2407 25.7589 73.6025 27.5589 71.3909 27.5589Z" fill="#FCFCFC"/>
<path d="M95.6283 27.5589C93.4167 27.5589 91.7784 25.7589 91.7784 23.4389C91.7784 21.0789 93.4167 19.2789 95.6283 19.2789C97.8399 19.2789 99.4781 21.0789 99.4781 23.4389C99.4781 25.7589 97.8399 27.5589 95.6283 27.5589ZM99.4781 5.47891V15.4389C98.3313 14.0389 96.6522 13.2389 94.4815 13.2389C89.1163 13.2389 85.1846 17.5589 85.1846 23.4389C85.1846 29.5989 89.4849 33.5989 94.4815 33.5989C96.6522 33.5989 98.2904 32.6789 99.4781 31.1989V32.9989H106.072V5.47891H99.4781Z" fill="#FCFCFC"/>
<path d="M124.043 13.8389L119.907 27.3189L115.975 13.8389H108.726L115.483 32.9989H124.043L130.719 13.8389H124.043Z" fill="#FCFCFC"/>
<path d="M139.96 13.8389H133.366V32.9989H139.96V13.8389ZM136.643 12.1189C138.69 12.1189 140.37 10.5189 140.37 8.5189C140.37 6.5189 138.69 4.87891 136.643 4.87891C134.595 4.87891 132.957 6.5189 132.957 8.5189C132.957 10.5189 134.595 12.1189 136.643 12.1189Z" fill="#FCFCFC"/>
<path d="M150.178 19.3589C150.178 18.7189 150.751 18.3189 151.898 18.3189C153.536 18.3189 155.174 18.8789 156.485 20.3589L160.089 16.5989C158.492 14.4389 155.42 13.2389 151.693 13.2389C146.328 13.2389 143.666 16.3589 143.666 19.3189C143.666 26.3589 153.536 25.0389 153.536 27.4389C153.536 28.0789 153.004 28.5189 151.734 28.5189C149.686 28.5189 147.925 27.8789 146.246 26.2389L142.683 30.3189C144.485 32.2389 147.475 33.5989 151.366 33.5989C157.181 33.5989 160.048 30.5589 160.048 27.3589C160.048 20.0789 150.178 21.8389 150.178 19.3589Z" fill="#FCFCFC"/>
<path d="M161.6 19.4789H165.286V25.5189C165.286 30.8789 168.194 33.5989 172.535 33.5989C175.238 33.5989 177.327 32.6389 178.596 31.3989L175.73 26.6389C175.32 27.1589 174.501 27.5589 173.682 27.5589C172.535 27.5589 172.003 26.8789 172.003 25.3589V19.4789H176.917V13.8389H171.921V8.63891H165.327V13.8389H161.6V19.4789Z" fill="#FCFCFC"/>
<path d="M184.476 33.5989C186.729 33.5989 188.572 31.8389 188.572 29.6389C188.572 27.4389 186.729 25.6389 184.476 25.6389C182.224 25.6389 180.422 27.4389 180.422 29.6389C180.422 31.8389 182.224 33.5989 184.476 33.5989Z" fill="#FCFCFC"/>
</svg>
