<svg width="91" height="111" viewBox="0 0 91 111" fill="none" xmlns="http://www.w3.org/2000/svg">
<path d="M23.1365 60.2656C19.0786 60.2656 15.7891 56.9761 15.7891 52.9182C15.7891 48.8603 19.0786 45.5707 23.1365 45.5707H56.9348C60.9927 45.5707 64.2822 48.8603 64.2822 52.9182C64.2822 56.9761 60.9927 60.2656 56.9348 60.2656H23.1365Z" fill="white"/>
<path d="M71.7025 54.7013C73.3845 58.3084 71.6176 62.6922 67.756 64.4928C63.8945 66.2935 59.4005 64.8292 57.7185 61.2222L35.3529 13.2588C33.6709 9.65178 35.4378 5.26797 39.2994 3.46729C43.1609 1.6666 47.6549 3.13094 49.3369 6.73796L71.7025 54.7013Z" fill="white"/>
<path d="M17.5925 79.9047C15.7918 83.7663 11.2016 85.437 7.34003 83.6363C3.47846 81.8356 1.80777 77.2455 3.60845 73.3839L34.5675 6.99208C36.3681 3.1305 40.9583 1.45981 44.8199 3.2605C48.6815 5.06118 50.3521 9.65134 48.5515 13.5129L17.5925 79.9047Z" fill="white"/>
<path d="M80.6537 76.4596C80.6537 80.4085 77.4525 83.6097 73.5036 83.6097C69.5547 83.6097 66.3535 80.4085 66.3535 76.4596C66.3535 72.5108 69.5547 69.3096 73.5036 69.3096C77.4525 69.3096 80.6537 72.5108 80.6537 76.4596Z" fill="#FFD033"/>
<path d="M10.1916 109.719H14.8932V95.7315H10.1916V96.8996C9.37398 95.8775 8.17668 95.2935 6.62895 95.2935C2.80343 95.2935 0 98.4474 0 102.74C0 107.237 3.06625 110.158 6.62895 110.158C8.17668 110.158 9.34478 109.486 10.1916 108.405V109.719ZM7.44662 105.748C5.86969 105.748 4.70159 104.434 4.70159 102.74C4.70159 101.017 5.86969 99.7031 7.44662 99.7031C9.02355 99.7031 10.1916 101.017 10.1916 102.74C10.1916 104.434 9.02355 105.748 7.44662 105.748Z" fill="white"/>
<path d="M24.7285 105.748C23.1516 105.748 21.9835 104.434 21.9835 102.74C21.9835 101.017 23.1516 99.7031 24.7285 99.7031C26.3055 99.7031 27.4735 101.017 27.4735 102.74C27.4735 104.434 26.3055 105.748 24.7285 105.748ZM27.4735 89.6282V96.8996C26.6559 95.8775 25.4586 95.2935 23.9109 95.2935C20.0853 95.2935 17.2819 98.4474 17.2819 102.74C17.2819 107.237 20.3482 110.158 23.9109 110.158C25.4586 110.158 26.6267 109.486 27.4735 108.405V109.719H32.1751V89.6282H27.4735Z" fill="white"/>
<path d="M44.9891 95.7315L42.0396 105.573L39.2362 95.7315H34.0674L38.8858 109.719H44.9891L49.7491 95.7315H44.9891Z" fill="white"/>
<path d="M56.3383 95.7315H51.6367V109.719H56.3383V95.7315ZM53.9729 94.4758C55.433 94.4758 56.6303 93.3077 56.6303 91.8476C56.6303 90.3875 55.433 89.1902 53.9729 89.1902C52.5128 89.1902 51.3447 90.3875 51.3447 91.8476C51.3447 93.3077 52.5128 94.4758 53.9729 94.4758Z" fill="white"/>
<path d="M63.6239 99.7615C63.6239 99.2942 64.0327 99.0022 64.8504 99.0022C66.0185 99.0022 67.1866 99.411 68.121 100.492L70.6909 97.7465C69.552 96.1696 67.3618 95.2935 64.7044 95.2935C60.8788 95.2935 58.9807 97.5713 58.9807 99.7323C58.9807 104.872 66.0185 103.908 66.0185 105.66C66.0185 106.128 65.6388 106.449 64.7336 106.449C63.2734 106.449 62.0177 105.982 60.8204 104.784L58.2798 107.763C59.5647 109.165 61.6965 110.158 64.4707 110.158C68.6175 110.158 70.6617 107.938 70.6617 105.602C70.6617 100.287 63.6239 101.572 63.6239 99.7615Z" fill="white"/>
<path d="M71.7682 99.8491H74.3964V104.259C74.3964 108.172 76.4697 110.158 79.5652 110.158C81.4926 110.158 82.9819 109.457 83.8872 108.551L81.843 105.076C81.551 105.456 80.9669 105.748 80.3829 105.748C79.5652 105.748 79.1856 105.252 79.1856 104.142V99.8491H82.6899V95.7315H79.1272V91.9352H74.4256V95.7315H71.7682V99.8491Z" fill="white"/>
<path d="M88.0798 110.158C89.6859 110.158 91 108.873 91 107.266C91 105.66 89.6859 104.346 88.0798 104.346C86.4736 104.346 85.1887 105.66 85.1887 107.266C85.1887 108.873 86.4736 110.158 88.0798 110.158Z" fill="white"/>
</svg>
