<svg width="1300" height="616" viewBox="0 0 1300 616" fill="none" xmlns="http://www.w3.org/2000/svg">
<circle cx="1105.52" cy="479.381" r="10.6037" transform="rotate(167.323 1105.52 479.381)" stroke="#FFD033" stroke-width="2"/>
<circle cx="971.867" cy="594.558" r="10.6037" transform="rotate(167.323 971.867 594.558)" stroke="#ED2E7E" stroke-width="2"/>
<circle cx="1279.99" cy="31.6549" r="10.6037" transform="rotate(-90.2536 1279.99 31.6549)" stroke="#9622FC" stroke-width="2"/>
<circle cx="1201.61" cy="553.12" r="5.15718" transform="rotate(-112.565 1201.61 553.12)" fill="#ED2E7E"/>
<circle cx="1290.24" cy="137.346" r="5.15718" transform="rotate(-121.185 1290.24 137.346)" fill="#FFD033"/>
<circle cx="1187.3" cy="407.734" r="10.6037" transform="rotate(-39.0436 1187.3 407.734)" stroke="#9622FC" stroke-width="2"/>
<circle cx="1167.23" cy="247.987" r="10.6037" transform="rotate(151.098 1167.23 247.987)" stroke="#ED2E7E" stroke-width="2"/>
<circle cx="1249.94" cy="245.175" r="10.6037" transform="rotate(-118.142 1249.94 245.175)" stroke="#00DD99" stroke-width="2"/>
<circle cx="1286.28" cy="443.53" r="5.15718" transform="rotate(34.4775 1286.28 443.53)" fill="#9622FC"/>
<circle cx="1075.26" cy="570.311" r="5.15718" transform="rotate(34.4775 1075.26 570.311)" fill="#9622FC"/>
<circle cx="1118.91" cy="48.1471" r="5.15718" transform="rotate(132.844 1118.91 48.1471)" fill="#9622FC"/>
<circle cx="1185.16" cy="93.584" r="5.15718" transform="rotate(132.844 1185.16 93.584)" fill="#00DD99"/>
<circle cx="1189.03" cy="480.373" r="5.15718" transform="rotate(132.844 1189.03 480.373)" fill="#00DD99"/>
<circle cx="1144.34" cy="335.972" r="5.15718" transform="rotate(132.844 1144.34 335.972)" fill="#ED2E7E"/>
<path d="M1230.48 165.269C1228.12 166.783 1225.42 167.7 1222.63 167.94C1219.83 168.18 1217.02 167.735 1214.44 166.644C1211.85 165.553 1209.57 163.849 1207.8 161.68C1206.02 159.51 1204.8 156.94 1204.23 154.192" stroke="#00DD99" stroke-width="2"/>
<path d="M1143.73 142.255C1145.95 143.968 1147.72 146.197 1148.89 148.748C1150.06 151.299 1150.58 154.095 1150.43 156.896C1150.27 159.696 1149.43 162.416 1147.99 164.82C1146.54 167.225 1144.53 169.24 1142.13 170.694" stroke="#FFD033" stroke-width="2"/>
<path d="M1245.94 492.051C1246.98 494.655 1247.37 497.473 1247.08 500.263C1246.79 503.053 1245.83 505.73 1244.27 508.063C1242.71 510.396 1240.61 512.314 1238.15 513.651C1235.68 514.989 1232.93 515.705 1230.12 515.739" stroke="#ED2E7E" stroke-width="2"/>
<path d="M1139.39 594.92C1137.08 593.328 1135.19 591.197 1133.89 588.712C1132.59 586.226 1131.92 583.462 1131.92 580.657C1131.93 577.852 1132.62 575.091 1133.94 572.614C1135.25 570.136 1137.15 568.016 1139.47 566.437" stroke="#9622FC" stroke-width="2"/>
<path d="M1270.43 331.768C1273.19 331.269 1276.04 331.449 1278.71 332.294C1281.38 333.139 1283.81 334.623 1285.78 336.618C1287.76 338.612 1289.21 341.057 1290.03 343.741C1290.84 346.425 1290.99 349.267 1290.46 352.021" stroke="#FFD033" stroke-width="2"/>
<path d="M1258 587.386C1259.03 584.779 1260.68 582.463 1262.81 580.638C1264.95 578.814 1267.49 577.535 1270.22 576.914C1272.96 576.294 1275.8 576.348 1278.51 577.074C1281.22 577.8 1283.71 579.175 1285.77 581.08" stroke="#00DD99" stroke-width="2"/>
<circle cx="142.856" cy="440.971" r="10.6037" transform="rotate(167.323 142.856 440.971)" stroke="#00DD99" stroke-width="2"/>
<circle cx="251.889" cy="16.0134" r="10.6037" transform="rotate(151.098 251.889 16.0134)" stroke="#FFD033" stroke-width="2"/>
<circle cx="88.2226" cy="321.014" r="5.15718" transform="rotate(7.09836 88.2226 321.014)" fill="#9622FC"/>
<circle cx="182.276" cy="323.957" r="10.6037" transform="rotate(-118.142 182.276 323.957)" stroke="#ED2E7E" stroke-width="2"/>
<circle cx="203.764" cy="81.1393" r="10.6037" transform="rotate(-118.142 203.764 81.1393)" stroke="#00DD99" stroke-width="2"/>
<circle cx="107.927" cy="257.343" r="10.6037" transform="rotate(-118.142 107.927 257.343)" stroke="#00DD99" stroke-width="2"/>
<circle cx="123.127" cy="65.3963" r="5.15718" transform="rotate(-152.621 123.127 65.3963)" fill="#ED2E7E"/>
<circle cx="230.998" cy="456.912" r="5.15718" transform="rotate(-152.621 230.998 456.912)" fill="#FFD033"/>
<circle cx="263.098" cy="521.995" r="5.15718" transform="rotate(-152.621 263.098 521.995)" fill="#00DD99"/>
<circle cx="215.294" cy="555.097" r="10.6037" transform="rotate(-11.1556 215.294 555.097)" stroke="#9622FC" stroke-width="2"/>
<circle cx="70.7437" cy="538.186" r="5.15718" transform="rotate(-95.3251 70.7437 538.186)" fill="#9622FC"/>
<circle cx="81.9175" cy="117.446" r="5.15718" transform="rotate(-95.3251 81.9175 117.446)" fill="#9622FC"/>
<path d="M59.9422 266.09C57.1448 265.885 54.4396 265.001 52.0605 263.516C49.6815 262.03 47.7003 259.987 46.2883 257.563C44.8763 255.139 44.076 252.408 43.9567 249.606C43.8375 246.804 44.4028 244.014 45.6037 241.48" stroke="#9622FC" stroke-width="2"/>
<path d="M108.784 135.186C109.828 137.789 110.221 140.608 109.931 143.398C109.641 146.188 108.675 148.865 107.117 151.197C105.56 153.53 103.457 155.448 100.992 156.786C98.5262 158.123 95.772 158.84 92.9673 158.874" stroke="#ED2E7E" stroke-width="2"/>
<path d="M41.3109 570.538C42.3546 573.142 42.7483 575.96 42.4578 578.75C42.1674 581.54 41.2016 584.217 39.644 586.55C38.0865 588.882 35.984 590.8 33.5186 592.138C31.0531 593.475 28.2989 594.192 25.4942 594.226" stroke="#FFD033" stroke-width="2"/>
<path d="M313.099 607.036C310.363 607.657 307.518 607.602 304.809 606.877C302.099 606.151 299.607 604.776 297.549 602.871C295.49 600.966 293.926 598.588 292.993 595.943C292.06 593.298 291.786 590.465 292.193 587.69" stroke="#ED2E7E" stroke-width="2"/>
<path d="M132.403 557.059C134.934 558.267 137.133 560.073 138.809 562.322C140.486 564.571 141.589 567.195 142.023 569.966C142.458 572.737 142.211 575.572 141.304 578.226C140.396 580.88 138.856 583.273 136.816 585.198" stroke="#00DD99" stroke-width="2"/>
<path d="M192.584 213.162C193.803 215.688 194.389 218.473 194.291 221.276C194.192 224.079 193.412 226.816 192.018 229.25C190.624 231.684 188.658 233.742 186.29 235.245C183.922 236.749 181.224 237.652 178.428 237.879" stroke="#FFD033" stroke-width="2"/>
<path d="M38.9949 412.867C36.4617 414.072 33.6733 414.641 30.8708 414.525C28.0682 414.41 25.336 413.614 22.9105 412.205C20.4849 410.796 18.4391 408.818 16.9499 406.441C15.4608 404.064 14.5732 401.36 14.364 398.563" stroke="#ED2E7E" stroke-width="2"/>
</svg>
