<svg width="444" height="342" viewBox="0 0 444 342" fill="none" xmlns="http://www.w3.org/2000/svg">
<path d="M23.8262 300.376V297.422H22.3842V304.478H23.8262V301.566H25.6182V300.376H23.8262ZM21.2222 301.944C19.3602 302.322 17.6522 302.434 15.9582 302.476V298.08H14.5162V303.666H15.5382C17.4002 303.666 19.2622 303.54 21.4042 303.106L21.2222 301.944ZM24.0082 306.228V305.08H15.6642V306.228H19.0662C18.9122 307.46 17.4282 308.608 15.1462 308.902L15.7062 309.994C17.6242 309.714 19.1222 308.846 19.8362 307.656C20.5642 308.832 22.0622 309.728 23.9802 310.008L24.5262 308.916C22.2862 308.58 20.7742 307.432 20.6202 306.228H24.0082ZM32.5471 297.702C29.7891 297.702 28.0391 298.612 28.0391 300.124C28.0391 301.622 29.7891 302.546 32.5471 302.546C35.3051 302.546 37.0551 301.622 37.0551 300.124C37.0551 298.612 35.3051 297.702 32.5471 297.702ZM32.5471 298.822C34.4651 298.822 35.5571 299.284 35.5571 300.124C35.5571 300.964 34.4651 301.412 32.5471 301.412C30.6291 301.412 29.5231 300.964 29.5231 300.124C29.5231 299.284 30.6291 298.822 32.5471 298.822ZM26.8211 303.47V304.618H38.2591V303.47H26.8211ZM28.1931 305.696V309.924H36.8731V305.696H28.1931ZM35.4591 306.844V308.776H29.6211V306.844H35.4591Z" fill="#4E4B66"/>
<path d="M67.474 331.378H65.5V326.436H64.058V339.092H65.5V332.568H67.474V331.378ZM59.074 327.36C57.184 327.36 55.826 329.096 55.826 331.826C55.826 334.556 57.184 336.278 59.074 336.278C60.964 336.278 62.322 334.556 62.322 331.826C62.322 329.096 60.964 327.36 59.074 327.36ZM59.074 334.99C57.954 334.99 57.212 333.8 57.212 331.826C57.212 329.852 57.954 328.662 59.074 328.662C60.194 328.662 60.936 329.852 60.936 331.826C60.936 333.8 60.194 334.99 59.074 334.99ZM78.7429 330.062H71.5049V326.884H70.0629V331.238H78.7429V330.062ZM68.5789 332.75V333.912H80.0589V332.75H68.5789ZM71.4209 335.074H69.9789V338.798H78.8129V337.636H71.4209V335.074ZM90.8938 326.436V339.078H92.2798V326.436H90.8938ZM88.2478 331.462H86.3858C86.7638 330.384 86.9178 329.222 86.9178 327.99H82.0038V329.152H85.4898C85.2798 331.742 84.0338 333.814 81.4018 335.382L82.2278 336.404C83.9778 335.34 85.1818 334.08 85.9238 332.624H88.2478V338.476H89.6058V326.744H88.2478V331.462ZM106.512 330.468V333.128H107.954V326.45H106.512V329.278H104.16C103.894 327.892 102.592 326.968 100.94 326.968C99.0356 326.968 97.6496 328.172 97.6496 329.894C97.6496 331.644 99.0356 332.848 100.94 332.848C102.606 332.848 103.908 331.896 104.174 330.468H106.512ZM99.0356 329.894C99.0356 328.83 99.8196 328.158 100.94 328.158C102.06 328.158 102.858 328.83 102.858 329.894C102.858 330.958 102.046 331.658 100.94 331.658C99.8196 331.658 99.0356 330.958 99.0356 329.894ZM107.044 333.758H105.616V334.766C105.616 336.012 104.902 337.328 103.376 337.958L104.104 339.05C105.182 338.602 105.882 337.79 106.316 336.838C106.708 337.804 107.436 338.616 108.556 339.05L109.27 337.958C107.744 337.398 107.044 336.11 107.044 334.766V333.758ZM102.046 333.856V335.284H100.24V333.856H98.8956V338.924H103.376V333.856H102.046ZM102.046 337.818H100.24V336.348H102.046V337.818ZM116.072 326.702C113.314 326.702 111.564 327.612 111.564 329.124C111.564 330.622 113.314 331.546 116.072 331.546C118.83 331.546 120.58 330.622 120.58 329.124C120.58 327.612 118.83 326.702 116.072 326.702ZM116.072 327.822C117.99 327.822 119.082 328.284 119.082 329.124C119.082 329.964 117.99 330.412 116.072 330.412C114.154 330.412 113.048 329.964 113.048 329.124C113.048 328.284 114.154 327.822 116.072 327.822ZM110.346 332.47V333.618H121.784V332.47H110.346ZM111.718 334.696V338.924H120.398V334.696H111.718ZM118.984 335.844V337.776H113.146V335.844H118.984Z" fill="#4E4B66"/>
<path d="M222.66 326.436V339.078H224.116V326.436H222.66ZM218.376 328.886H221.19V327.696H214.106V328.886H216.92V330.09C216.92 332.232 215.618 334.64 213.658 335.522L214.484 336.67C215.968 335.97 217.102 334.444 217.662 332.694C218.264 334.332 219.384 335.69 220.854 336.348L221.652 335.214C219.678 334.36 218.376 332.204 218.376 330.09V328.886ZM235.567 326.422V334.01H237.009V326.422H235.567ZM234.265 332.176C232.305 331.532 231.199 329.95 231.199 328.242V327.01H229.729V328.242C229.729 330.006 228.609 331.728 226.621 332.4L227.335 333.534C228.847 333.016 229.911 331.952 230.485 330.552C231.045 331.84 232.095 332.806 233.551 333.31L234.265 332.176ZM228.483 335.774H235.567V339.078H237.009V334.612H228.483V335.774ZM238.926 339.82H240.046L243.938 326.128H242.818L238.926 339.82ZM253.915 326.436V339.078H255.357V326.436H253.915ZM245.641 327.766V328.942H250.149C249.911 331.854 248.329 334.066 245.011 335.676L245.781 336.824C250.121 334.724 251.633 331.532 251.633 327.766H245.641ZM268.642 329.768C266.108 329.502 264.26 328.256 264.26 326.856V326.492H262.776V326.856C262.776 328.256 260.928 329.502 258.394 329.768L258.884 330.874C261.026 330.608 262.678 329.782 263.518 328.494C264.358 329.782 266.01 330.608 268.152 330.874L268.642 329.768ZM269.244 332.708V331.56H257.792V332.708H262.776V333.772H259.15V334.864H266.388V335.802H259.178V338.966H268.166V337.86H260.606V336.824H267.802V333.772H264.232V332.708H269.244Z" fill="#4E4B66"/>
<path d="M395.811 329.824V331.014H398.107V335.69H399.549V326.45H398.107V329.824H395.811ZM396.595 332.778C394.691 332.106 393.627 330.538 393.627 328.984V328.55H396.259V327.388H389.497V328.55H392.171V328.984C392.171 330.678 391.023 332.372 389.063 333.044L389.805 334.178C391.317 333.66 392.367 332.582 392.927 331.182C393.473 332.428 394.481 333.408 395.881 333.898L396.595 332.778ZM392.801 337.664V334.892H391.359V338.84H399.871V337.664H392.801ZM411.924 326.996H403.398V331.56H411.924V326.996ZM410.51 330.412H404.812V328.144H410.51V330.412ZM401.942 332.806V333.968H407.066V336.334H408.508V333.968H413.408V332.806H401.942ZM404.784 335.186H403.342V338.84H412.134V337.664H404.784V335.186ZM426.539 331.42H424.621V326.422H423.179V339.064H424.621V332.624H426.539V331.42ZM415.451 327.766V328.942H419.875C419.581 331.84 417.887 334.08 414.821 335.662L415.619 336.768C419.749 334.682 421.317 331.434 421.317 327.766H415.451Z" fill="#4E4B66"/>
<path d="M12.8373 174.42H10.8633V169.436H9.42128V182.078H10.8633V175.61H12.8373V174.42ZM5.50128 171.886H8.17528V170.696H1.30128V171.886H4.05928V173.104C4.05928 175.19 2.78528 177.584 0.839281 178.522L1.66528 179.67C3.13528 178.956 4.24128 177.444 4.80128 175.68C5.37528 177.318 6.45328 178.676 7.86728 179.348L8.66528 178.214C6.74728 177.318 5.50128 175.05 5.50128 173.104V171.886ZM24.3722 169.45H22.9302V178.69H24.3722V169.45ZM21.6142 175.554C19.6682 174.882 18.5622 173.188 18.5622 171.396V170.136H17.0922V171.396C17.0922 173.258 15.9862 175.022 13.9982 175.778L14.7402 176.94C16.2522 176.38 17.2742 175.232 17.8482 173.818C18.3942 175.162 19.4162 176.156 20.8722 176.702L21.6142 175.554ZM17.5682 180.664V177.822H16.1122V181.84H24.7362V180.664H17.5682ZM38.4971 172.362H36.7051V169.422H35.2631V176.562H36.7051V173.552H38.4971V172.362ZM27.3391 170.192V171.368H31.6791C31.4411 173.286 29.7891 174.826 26.7651 175.61L27.3251 176.758C31.0631 175.75 33.2331 173.482 33.2331 170.192H27.3391ZM28.6271 181.924H36.7051V177.108H28.6271V181.924ZM30.0551 178.256H35.2771V180.762H30.0551V178.256Z" fill="#4E4B66"/>
<path d="M20.3962 48.022V46.664H24.1342V45.502H16.8962V42.702H15.4542V46.664H18.9402V48.022H13.9422V49.184H25.3802V48.022H20.3962ZM22.3142 51.41H24.1622V50.262H15.2022V51.41H17.0362V53.776H15.0762V54.924H24.2602V53.776H22.3142V51.41ZM18.4642 51.41H20.8862V53.776H18.4642V51.41ZM32.5471 42.702C29.7891 42.702 28.0391 43.612 28.0391 45.124C28.0391 46.622 29.7891 47.546 32.5471 47.546C35.3051 47.546 37.0551 46.622 37.0551 45.124C37.0551 43.612 35.3051 42.702 32.5471 42.702ZM32.5471 43.822C34.4651 43.822 35.5571 44.284 35.5571 45.124C35.5571 45.964 34.4651 46.412 32.5471 46.412C30.6291 46.412 29.5231 45.964 29.5231 45.124C29.5231 44.284 30.6291 43.822 32.5471 43.822ZM26.8211 48.47V49.618H38.2591V48.47H26.8211ZM28.1931 50.696V54.924H36.8731V50.696H28.1931ZM35.4591 51.844V53.776H29.6211V51.844H35.4591Z" fill="#4E4B66"/>
<path d="M55.7071 40.2929C55.3166 39.9024 54.6834 39.9024 54.2929 40.2929L47.9289 46.6569C47.5384 47.0474 47.5384 47.6805 47.9289 48.0711C48.3194 48.4616 48.9526 48.4616 49.3431 48.0711L55 42.4142L60.6568 48.0711C61.0474 48.4616 61.6805 48.4616 62.0711 48.0711C62.4616 47.6805 62.4616 47.0474 62.0711 46.6569L55.7071 40.2929ZM56 309L56 41L54 41L54 309L56 309Z" fill="#4E4B66"/>
<path d="M427.707 309.707C428.098 309.317 428.098 308.683 427.707 308.293L421.343 301.929C420.953 301.538 420.319 301.538 419.929 301.929C419.538 302.319 419.538 302.953 419.929 303.343L425.586 309L419.929 314.657C419.538 315.047 419.538 315.681 419.929 316.071C420.319 316.462 420.953 316.462 421.343 316.071L427.707 309.707ZM55 310H427V308H55V310Z" fill="#4E4B66"/>
<path d="M57 309C59.2395 240.263 66.6939 101.098 78.5953 94.3342C93.4721 85.8791 94.4319 265.315 123.226 273.301C150.929 280.984 210.087 218.812 257.117 162.445C304.147 106.077 366.533 84 427 84" stroke="#9622FC" stroke-width="2"/>
<circle cx="80" cy="94" r="3" fill="white" stroke="#9622FC" stroke-width="2"/>
<circle cx="154" cy="264" r="3" fill="white" stroke="#9622FC" stroke-width="2"/>
<circle cx="233" cy="190" r="3" fill="white" stroke="#9622FC" stroke-width="2"/>
<circle cx="350" cy="97" r="3" fill="white" stroke="#9622FC" stroke-width="2"/>
<rect x="82" y="57" width="108" height="36" rx="12" fill="#FFF7DD"/>
<rect x="132" y="138" width="116" height="36" rx="12" fill="#F2FFFB"/>
<rect x="328" y="43" width="116" height="36" rx="12" fill="#F3EFFF"/>
<path d="M97.1767 63.088H95.9287V68.644H97.1767V63.088ZM94.8367 67.432C93.1687 66.916 92.1967 65.584 92.1967 64.192V63.376H90.9367V64.192C90.9367 65.656 89.9647 67.048 88.2487 67.624L88.8607 68.608C90.1687 68.164 91.0927 67.264 91.5847 66.1C92.0767 67.168 92.9887 67.984 94.2367 68.404L94.8367 67.432ZM91.3087 72.856V71.908H97.1767V69.16H90.0727V70.12H95.9527V71.008H90.0967V73.828H97.5007V72.856H91.3087ZM107.352 63.076V73.912H108.528V63.076H107.352ZM105.168 66.892H103.572V67.9H105.168V73.396H106.332V63.292H105.168V66.892ZM102.576 65.284H104.364V64.264H99.4678V65.284H101.376V66.064C101.376 67.996 100.656 69.952 99.1198 70.912L99.8638 71.824C100.92 71.152 101.604 70.036 101.988 68.632C102.372 69.892 103.044 70.948 104.064 71.56L104.784 70.66C103.26 69.796 102.576 67.888 102.576 66.064V65.284ZM123.09 67.324H121.398V63.088H120.162V73.936H121.398V68.344H123.09V67.324ZM115.89 63.88C114.27 63.88 113.106 65.368 113.106 67.708C113.106 70.048 114.27 71.524 115.89 71.524C117.51 71.524 118.674 70.048 118.674 67.708C118.674 65.368 117.51 63.88 115.89 63.88ZM115.89 70.42C114.93 70.42 114.294 69.4 114.294 67.708C114.294 66.016 114.93 64.996 115.89 64.996C116.85 64.996 117.486 66.016 117.486 67.708C117.486 69.4 116.85 70.42 115.89 70.42ZM132.75 66.196H126.546V63.472H125.31V67.204H132.75V66.196ZM124.038 68.5V69.496H133.878V68.5H124.038ZM126.474 70.492H125.238V73.684H132.81V72.688H126.474V70.492ZM143.376 66.34V67.36H145.512V71.068H146.748V63.088H145.512V66.34H143.376ZM138.468 63.916V64.924H142.104C141.876 66.664 140.304 68.152 137.904 68.92L138.444 69.904C141.516 68.884 143.436 66.784 143.436 63.916H138.468ZM141.036 72.712V70.264H139.8V73.72H147.024V72.712H141.036ZM159.235 63.076V65.8H157.339V66.82H159.235V69.556H160.471V63.076H159.235ZM157.939 68.224C156.307 67.648 155.395 66.304 155.395 64.96V64.756H157.651V63.76H151.855V64.756H154.147V64.972C154.147 66.436 153.163 67.864 151.483 68.44L152.119 69.412C153.415 68.968 154.315 68.032 154.795 66.868C155.263 67.924 156.127 68.764 157.327 69.184L157.939 68.224ZM153.163 71.092H159.235V73.924H160.471V70.096H153.163V71.092ZM170.202 63.088V73.924H171.45V63.088H170.202ZM166.53 65.188H168.942V64.168H162.87V65.188H165.282V66.22C165.282 68.056 164.166 70.12 162.486 70.876L163.194 71.86C164.466 71.26 165.438 69.952 165.918 68.452C166.434 69.856 167.394 71.02 168.654 71.584L169.338 70.612C167.646 69.88 166.53 68.032 166.53 66.22V65.188ZM182.033 66.304V63.076H180.797V71.02H182.033V67.324H183.569V66.304H182.033ZM179.021 64.012H173.945V69.136H179.021V64.012ZM177.809 68.14H175.169V65.008H177.809V68.14ZM176.417 70.252H175.169V73.72H182.465V72.712H176.417V70.252ZM96.7087 79.344V77.088H95.4727V82.656H96.7087V80.364H98.2327V79.344H96.7087ZM94.6327 81.552C92.9767 81.072 92.0407 79.884 92.0407 78.696V78.636H94.2967V77.64H88.4767V78.636H90.7807V78.696C90.7807 80.04 89.7967 81.3 88.1047 81.816L88.6927 82.776C90.0487 82.38 90.9487 81.552 91.4407 80.448C91.9207 81.408 92.8087 82.14 94.0567 82.512L94.6327 81.552ZM90.9487 85.872H96.7087V83.124H89.7127V84.072H95.4847V84.984H89.7367V87.828H97.0687V86.868H90.9487V85.872ZM110.431 79.308V77.076H109.195V82.56H110.431V80.328H111.955V79.308H110.431ZM107.791 79.872C107.791 78.444 106.603 77.436 104.959 77.436C103.315 77.436 102.103 78.444 102.103 79.872C102.103 81.3 103.315 82.308 104.959 82.308C106.603 82.308 107.791 81.3 107.791 79.872ZM103.303 79.872C103.303 79.008 103.999 78.444 104.959 78.444C105.919 78.444 106.591 79.008 106.591 79.872C106.591 80.736 105.919 81.312 104.959 81.312C103.999 81.312 103.303 80.736 103.303 79.872ZM104.671 85.824H110.431V83.028H103.435V84H109.207V84.924H103.459V87.792H110.791V86.808H104.671V85.824ZM120.498 79.164C120.498 80.448 120.498 81.996 120.078 84.12L121.326 84.252C121.746 82.008 121.746 80.496 121.746 79.164V78.096H114.03V79.104H120.498V79.164ZM117.906 85.488V81.672H116.658V85.488H113.01V86.508H122.802V85.488H117.906ZM135.661 77.1H134.425V83.256H135.661V77.1ZM129.817 82.8C131.473 82.8 132.685 81.756 132.685 80.244C132.685 78.732 131.473 77.688 129.817 77.688C128.149 77.688 126.937 78.732 126.937 80.244C126.937 81.756 128.149 82.8 129.817 82.8ZM129.817 78.708C130.777 78.708 131.485 79.32 131.485 80.244C131.485 81.18 130.777 81.78 129.817 81.78C128.857 81.78 128.149 81.18 128.149 80.244C128.149 79.32 128.857 78.708 129.817 78.708ZM134.509 83.724H133.297V84.204C133.297 85.008 132.841 86.052 131.881 86.688C130.921 86.076 130.513 85.116 130.513 84.204V83.724H129.313V84.204C129.313 85.248 128.605 86.388 127.213 86.868L127.813 87.78C128.821 87.408 129.517 86.724 129.913 85.86C130.249 86.736 130.885 87.48 131.905 87.876C132.913 87.456 133.537 86.7 133.885 85.836C134.257 86.712 134.953 87.408 136.009 87.78L136.621 86.868C135.217 86.424 134.509 85.308 134.509 84.204V83.724ZM147.852 81.252H146.16V77.076H144.924V87.936H146.16V82.272H147.852V81.252ZM139.44 79.116H143.244V78.108H138.204V85.272H139.092C141.048 85.272 142.524 85.2 144.156 84.912L144.024 83.892C142.524 84.144 141.168 84.24 139.44 84.24V79.116ZM156.299 79.164C156.299 80.448 156.299 81.996 155.879 84.12L157.127 84.252C157.547 82.008 157.547 80.496 157.547 79.164V78.096H149.831V79.104H156.299V79.164ZM153.707 85.488V81.672H152.459V85.488H148.811V86.508H158.603V85.488H153.707ZM168.93 82.356C167.262 81.876 166.35 80.676 166.35 79.428V79.308H168.63V78.324H166.362V77.028H165.114V78.324H162.834V79.308H165.114V79.428C165.114 80.772 164.178 82.032 162.51 82.548L163.098 83.52C164.394 83.124 165.27 82.296 165.762 81.228C166.23 82.2 167.094 82.968 168.342 83.316L168.93 82.356ZM172.53 79.884H170.994V77.076H169.758V83.712H170.994V80.904H172.53V79.884ZM163.866 85.224H169.758V87.948H170.994V84.228H163.866V85.224ZM183.569 79.74H182.033V77.076H180.797V83.412H182.033V80.76H183.569V79.74ZM174.005 77.736V78.732H177.737C177.509 80.424 176.093 81.708 173.489 82.38L173.993 83.352C177.185 82.488 179.045 80.544 179.045 77.736H174.005ZM174.905 84.888H180.797V87.936H182.033V83.892H174.905V84.888Z" fill="#9E7C0A"/>
<path d="M146.991 149.404H145.299V154.924H144.063V144.088H145.299V148.384H146.991V149.404ZM140.703 146.764C140.703 147.244 140.763 147.724 140.883 148.204C141.011 148.676 141.187 149.12 141.411 149.536C141.643 149.952 141.919 150.328 142.239 150.664C142.567 150.992 142.935 151.256 143.343 151.456L142.587 152.44C142.003 152.136 141.499 151.712 141.075 151.168C140.651 150.616 140.323 149.976 140.091 149.248C139.859 150 139.519 150.676 139.071 151.276C138.631 151.868 138.099 152.324 137.475 152.644L136.719 151.648C137.143 151.44 137.523 151.164 137.859 150.82C138.203 150.468 138.491 150.076 138.723 149.644C138.963 149.212 139.147 148.752 139.275 148.264C139.403 147.768 139.467 147.268 139.467 146.764V144.988H140.703V146.764ZM156.878 149.644H155.63V144.088H156.878V149.644ZM153.938 149.404C153.314 149.196 152.778 148.896 152.33 148.504C151.882 148.104 151.534 147.636 151.286 147.1C151.038 147.684 150.686 148.192 150.23 148.624C149.774 149.056 149.218 149.384 148.562 149.608L147.95 148.624C148.382 148.48 148.762 148.288 149.09 148.048C149.426 147.808 149.706 147.54 149.93 147.244C150.162 146.94 150.338 146.616 150.458 146.272C150.578 145.92 150.638 145.56 150.638 145.192V144.376H151.898V145.192C151.898 145.536 151.958 145.876 152.078 146.212C152.198 146.548 152.37 146.86 152.594 147.148C152.818 147.428 153.094 147.68 153.422 147.904C153.75 148.128 154.122 148.304 154.538 148.432L153.938 149.404ZM157.202 153.856V154.828H149.798V152.008H155.654V151.12H149.774V150.16H156.878V152.908H151.01V153.856H157.202ZM171.657 146.344V147.364H170.133V149.656H168.897V144.088H170.133V146.344H171.657ZM167.481 149.512C166.857 149.328 166.325 149.06 165.885 148.708C165.445 148.348 165.105 147.928 164.865 147.448C164.617 148 164.265 148.476 163.809 148.876C163.361 149.276 162.797 149.576 162.117 149.776L161.529 148.816C161.953 148.688 162.329 148.516 162.657 148.3C162.993 148.084 163.273 147.84 163.497 147.568C163.729 147.296 163.905 147 164.025 146.68C164.145 146.36 164.205 146.032 164.205 145.696V145.636H161.901V144.64H167.721V145.636H165.465V145.696C165.465 145.992 165.521 146.288 165.633 146.584C165.753 146.872 165.921 147.144 166.137 147.4C166.361 147.648 166.633 147.872 166.953 148.072C167.273 148.272 167.641 148.432 168.057 148.552L167.481 149.512ZM164.373 153.868H170.493V154.828H163.161V151.984H168.909V151.072H163.137V150.124H170.133V152.872H164.373V153.868ZM185.211 152.584V153.592H175.395V152.584H179.667V150.136H176.487V144.952H184.071V150.136H180.903V152.584H185.211ZM177.699 149.152H182.859V145.936H177.699V149.152ZM193.862 145.876H187.598V144.868H195.086V148.3H188.834V149.812H195.326V150.82H187.622V147.316H193.862V145.876ZM196.25 152.608V153.628H186.434V152.608H196.25ZM204.961 146.104H198.493V145.096H206.209V146.164C206.209 146.5 206.205 146.848 206.197 147.208C206.197 147.568 206.181 147.956 206.149 148.372C206.125 148.78 206.085 149.224 206.029 149.704C205.973 150.176 205.893 150.692 205.789 151.252L204.541 151.12C204.749 150.056 204.869 149.124 204.901 148.324C204.941 147.524 204.961 146.804 204.961 146.164V146.104ZM207.265 152.488V153.508H197.473V152.488H201.121V148.672H202.369V152.488H207.265ZM220.124 150.256H218.888V144.1H220.124V150.256ZM214.28 149.8C213.864 149.8 213.48 149.74 213.128 149.62C212.776 149.492 212.472 149.316 212.216 149.092C211.96 148.868 211.76 148.6 211.616 148.288C211.472 147.968 211.4 147.62 211.4 147.244C211.4 146.868 211.472 146.524 211.616 146.212C211.76 145.892 211.96 145.62 212.216 145.396C212.472 145.172 212.776 145 213.128 144.88C213.48 144.752 213.864 144.688 214.28 144.688C214.696 144.688 215.076 144.752 215.42 144.88C215.772 145 216.076 145.172 216.332 145.396C216.588 145.62 216.788 145.892 216.932 146.212C217.076 146.524 217.148 146.868 217.148 147.244C217.148 147.62 217.076 147.968 216.932 148.288C216.788 148.6 216.588 148.868 216.332 149.092C216.076 149.316 215.772 149.492 215.42 149.62C215.076 149.74 214.696 149.8 214.28 149.8ZM214.28 145.708C213.8 145.708 213.4 145.848 213.08 146.128C212.768 146.408 212.612 146.78 212.612 147.244C212.612 147.716 212.768 148.092 213.08 148.372C213.4 148.644 213.8 148.78 214.28 148.78C214.76 148.78 215.156 148.644 215.468 148.372C215.788 148.092 215.948 147.716 215.948 147.244C215.948 146.78 215.788 146.408 215.468 146.128C215.156 145.848 214.76 145.708 214.28 145.708ZM218.972 151.204C218.972 151.476 219.016 151.748 219.104 152.02C219.192 152.292 219.324 152.548 219.5 152.788C219.676 153.02 219.896 153.232 220.16 153.424C220.424 153.608 220.732 153.756 221.084 153.868L220.472 154.78C219.944 154.596 219.504 154.336 219.152 154C218.8 153.664 218.532 153.276 218.348 152.836C218.172 153.268 217.924 153.664 217.604 154.024C217.284 154.384 216.872 154.668 216.368 154.876C215.856 154.676 215.436 154.4 215.108 154.048C214.788 153.696 214.544 153.3 214.376 152.86C214.176 153.292 213.9 153.672 213.548 154C213.204 154.336 212.78 154.596 212.276 154.78L211.676 153.868C212.028 153.748 212.332 153.592 212.588 153.4C212.852 153.2 213.072 152.984 213.248 152.752C213.424 152.512 213.556 152.26 213.644 151.996C213.732 151.732 213.776 151.468 213.776 151.204V150.724H214.976V151.204C214.976 151.66 215.084 152.112 215.3 152.56C215.516 153.008 215.864 153.384 216.344 153.688C216.584 153.528 216.792 153.348 216.968 153.148C217.144 152.94 217.292 152.728 217.412 152.512C217.532 152.288 217.62 152.064 217.676 151.84C217.732 151.616 217.76 151.404 217.76 151.204V150.724H218.972V151.204ZM227.131 144.316C227.723 144.316 228.255 144.364 228.727 144.46C229.207 144.556 229.615 144.692 229.951 144.868C230.287 145.044 230.543 145.26 230.719 145.516C230.903 145.772 230.995 146.064 230.995 146.392C230.995 146.712 230.903 147 230.719 147.256C230.543 147.512 230.287 147.732 229.951 147.916C229.615 148.092 229.207 148.228 228.727 148.324C228.255 148.42 227.723 148.468 227.131 148.468C226.539 148.468 226.003 148.42 225.523 148.324C225.051 148.228 224.647 148.092 224.311 147.916C223.975 147.732 223.715 147.512 223.531 147.256C223.355 147 223.267 146.712 223.267 146.392C223.267 146.064 223.355 145.772 223.531 145.516C223.715 145.26 223.975 145.044 224.311 144.868C224.647 144.692 225.051 144.556 225.523 144.46C226.003 144.364 226.539 144.316 227.131 144.316ZM227.131 145.276C226.307 145.276 225.667 145.372 225.211 145.564C224.763 145.756 224.539 146.032 224.539 146.392C224.539 146.752 224.763 147.028 225.211 147.22C225.667 147.404 226.307 147.496 227.131 147.496C227.955 147.496 228.591 147.404 229.039 147.22C229.487 147.028 229.711 146.752 229.711 146.392C229.711 146.032 229.487 145.756 229.039 145.564C228.591 145.372 227.955 145.276 227.131 145.276ZM232.027 149.26V150.244H222.223V149.26H232.027ZM230.839 151.168V154.792H223.399V151.168H230.839ZM224.623 152.152V153.808H229.627V152.152H224.623ZM238.17 147.988C236.914 147.988 235.954 147.828 235.29 147.508C234.634 147.188 234.306 146.728 234.306 146.128C234.306 145.52 234.634 145.056 235.29 144.736C235.954 144.416 236.914 144.256 238.17 144.256C239.418 144.256 240.374 144.416 241.038 144.736C241.702 145.056 242.034 145.52 242.034 146.128C242.034 146.728 241.702 147.188 241.038 147.508C240.374 147.828 239.418 147.988 238.17 147.988ZM238.17 145.18C237.322 145.18 236.678 145.26 236.238 145.42C235.806 145.58 235.59 145.816 235.59 146.128C235.59 146.432 235.806 146.664 236.238 146.824C236.678 146.984 237.322 147.064 238.17 147.064C239.018 147.064 239.658 146.984 240.09 146.824C240.53 146.664 240.75 146.432 240.75 146.128C240.75 145.816 240.53 145.58 240.09 145.42C239.658 145.26 239.018 145.18 238.17 145.18ZM243.078 148.624V149.608H233.262V148.624H243.078ZM235.674 153.88H242.154V154.828H234.45V152.104H240.63V151.324H234.426V150.388H241.842V152.98H235.674V153.88ZM152.628 164.4C152.188 164.312 151.764 164.176 151.356 163.992C150.956 163.808 150.58 163.588 150.228 163.332C149.884 163.076 149.576 162.788 149.304 162.468C149.032 162.14 148.808 161.792 148.632 161.424C148.456 161.792 148.232 162.14 147.96 162.468C147.688 162.788 147.376 163.076 147.024 163.332C146.68 163.588 146.304 163.808 145.896 163.992C145.496 164.176 145.076 164.312 144.636 164.4L144.108 163.38C144.644 163.284 145.144 163.112 145.608 162.864C146.08 162.616 146.492 162.324 146.844 161.988C147.196 161.644 147.472 161.268 147.672 160.86C147.88 160.444 147.984 160.024 147.984 159.6V158.784H149.292V159.6C149.292 160.032 149.392 160.456 149.592 160.872C149.8 161.28 150.08 161.656 150.432 162C150.784 162.336 151.192 162.628 151.656 162.876C152.128 163.116 152.632 163.284 153.168 163.38L152.628 164.4ZM153.588 166.512V167.532H143.772V166.512H153.588ZM163.667 164.4C163.227 164.312 162.803 164.176 162.395 163.992C161.995 163.808 161.619 163.588 161.267 163.332C160.923 163.076 160.615 162.788 160.343 162.468C160.071 162.14 159.847 161.792 159.671 161.424C159.495 161.792 159.271 162.14 158.999 162.468C158.727 162.788 158.415 163.076 158.063 163.332C157.719 163.588 157.343 163.808 156.935 163.992C156.535 164.176 156.115 164.312 155.675 164.4L155.147 163.38C155.683 163.284 156.183 163.112 156.647 162.864C157.119 162.616 157.531 162.324 157.883 161.988C158.235 161.644 158.511 161.268 158.711 160.86C158.919 160.444 159.023 160.024 159.023 159.6V158.784H160.331V159.6C160.331 160.032 160.431 160.456 160.631 160.872C160.839 161.28 161.119 161.656 161.471 162C161.823 162.336 162.231 162.628 162.695 162.876C163.167 163.116 163.671 163.284 164.207 163.38L163.667 164.4ZM164.627 166.512V167.532H154.811V166.512H164.627ZM175.666 166.632V167.652H165.85V166.632H170.122V164.784H167.038V161.292H173.278V159.84H167.014V158.844H174.502V162.276H168.25V163.788H174.742V164.784H171.358V166.632H175.666ZM188.993 158.064V168.924H187.817V163.356H186.725V168.42H185.561V158.304H186.725V162.348H187.817V158.064H188.993ZM182.237 159.36C182.237 159.976 182.213 160.592 182.165 161.208C182.117 161.816 182.025 162.416 181.889 163.008C181.761 163.592 181.581 164.164 181.349 164.724C181.125 165.276 180.829 165.804 180.461 166.308L179.501 165.756C179.805 165.348 180.057 164.932 180.257 164.508C180.465 164.084 180.633 163.648 180.761 163.2C180.897 162.752 180.997 162.296 181.061 161.832C181.125 161.36 181.169 160.872 181.193 160.368H179.801V159.36H182.237ZM184.793 159.36C184.793 159.992 184.773 160.64 184.733 161.304C184.701 161.96 184.625 162.616 184.505 163.272C184.385 163.928 184.205 164.572 183.965 165.204C183.733 165.836 183.417 166.44 183.017 167.016L182.033 166.476C182.369 166.012 182.641 165.536 182.849 165.048C183.065 164.552 183.233 164.048 183.353 163.536C183.481 163.016 183.569 162.492 183.617 161.964C183.673 161.428 183.709 160.896 183.725 160.368H182.585V159.36H184.793ZM200.608 160.26V161.28H199.072V163.512H197.836V158.088H199.072V160.26H200.608ZM196.96 162.804C196.592 162.884 196.228 162.952 195.868 163.008C195.508 163.056 195.128 163.096 194.728 163.128C194.336 163.152 193.908 163.168 193.444 163.176C192.988 163.184 192.476 163.188 191.908 163.188H191.032V158.688H195.856V159.672H192.268V162.192C192.764 162.192 193.216 162.188 193.624 162.18C194.04 162.164 194.428 162.144 194.788 162.12C195.148 162.096 195.492 162.06 195.82 162.012C196.148 161.964 196.48 161.904 196.816 161.832L196.96 162.804ZM193.312 167.808H199.432V168.792H192.1V165.9H197.848V165H192.076V164.004H199.072V166.836H193.312V167.808ZM209.139 160.104H202.671V159.096H210.387V160.164C210.387 160.5 210.383 160.848 210.375 161.208C210.375 161.568 210.359 161.956 210.327 162.372C210.303 162.78 210.263 163.224 210.207 163.704C210.151 164.176 210.071 164.692 209.967 165.252L208.719 165.12C208.927 164.056 209.047 163.124 209.079 162.324C209.119 161.524 209.139 160.804 209.139 160.164V160.104ZM211.443 166.488V167.508H201.651V166.488H205.299V162.672H206.547V166.488H211.443ZM225.394 163.524H223.798V168.924H222.562V158.076H223.798V162.492H225.394V163.524ZM215.362 163.164C215.778 163.036 216.15 162.868 216.478 162.66C216.806 162.444 217.082 162.2 217.306 161.928C217.538 161.648 217.714 161.348 217.834 161.028C217.954 160.708 218.014 160.376 218.014 160.032H215.722V159.024H221.554V160.032H219.262C219.262 160.344 219.322 160.652 219.442 160.956C219.562 161.26 219.73 161.544 219.946 161.808C220.17 162.064 220.442 162.296 220.762 162.504C221.082 162.704 221.442 162.864 221.842 162.984L221.254 163.944C220.63 163.76 220.098 163.484 219.658 163.116C219.226 162.74 218.894 162.3 218.662 161.796C218.422 162.348 218.078 162.824 217.63 163.224C217.182 163.624 216.634 163.928 215.986 164.136L215.362 163.164ZM219.262 165.66C219.718 165.644 220.166 165.62 220.606 165.588C221.054 165.548 221.494 165.496 221.926 165.432L222.034 166.332C221.458 166.436 220.874 166.516 220.282 166.572C219.698 166.628 219.122 166.672 218.554 166.704C217.986 166.728 217.434 166.744 216.898 166.752C216.37 166.752 215.874 166.752 215.41 166.752L215.254 165.732C215.662 165.732 216.098 165.732 216.562 165.732C217.034 165.732 217.522 165.724 218.026 165.708V163.68H219.262V165.66ZM234.141 160.416V158.088H235.389V163.644H234.141V161.424H232.233V160.416H234.141ZM232.233 163.584C231.625 163.392 231.101 163.112 230.661 162.744C230.229 162.368 229.897 161.936 229.665 161.448C229.425 162 229.081 162.484 228.633 162.9C228.185 163.308 227.637 163.616 226.989 163.824L226.389 162.864C226.805 162.728 227.173 162.548 227.493 162.324C227.821 162.092 228.097 161.836 228.321 161.556C228.553 161.268 228.729 160.964 228.849 160.644C228.969 160.324 229.029 160.004 229.029 159.684V159.576H226.749V158.58H232.545V159.576H230.277V159.696C230.277 160 230.333 160.3 230.445 160.596C230.565 160.892 230.733 161.168 230.949 161.424C231.165 161.68 231.429 161.912 231.741 162.12C232.061 162.328 232.417 162.496 232.809 162.624L232.233 163.584ZM235.749 167.844V168.816H228.345V165.972H234.165V165.108H228.333V164.136H235.389V166.884H229.569V167.844H235.749Z" fill="#00966D"/>
<path d="M338.973 50.956C338.309 52.692 336.773 53.9 334.365 54.58L333.873 53.596C335.185 53.236 336.177 52.736 336.849 52.096C337.529 51.456 337.925 50.712 338.037 49.864H334.437V48.868H339.357C339.357 49.06 339.349 49.248 339.333 49.432C339.317 49.608 339.293 49.78 339.261 49.948H341.493V48.088H342.729V54.46H341.493V53.212H338.865V52.204H341.493V50.956H338.973ZM339.177 54.592C339.729 54.592 340.225 54.644 340.665 54.748C341.113 54.844 341.493 54.984 341.805 55.168C342.125 55.352 342.369 55.576 342.537 55.84C342.713 56.104 342.801 56.4 342.801 56.728C342.801 57.064 342.713 57.364 342.537 57.628C342.369 57.892 342.125 58.116 341.805 58.3C341.493 58.484 341.113 58.624 340.665 58.72C340.225 58.824 339.729 58.876 339.177 58.876C338.625 58.876 338.125 58.824 337.677 58.72C337.237 58.624 336.861 58.484 336.549 58.3C336.237 58.116 335.993 57.892 335.817 57.628C335.649 57.364 335.565 57.064 335.565 56.728C335.565 56.4 335.649 56.104 335.817 55.84C335.993 55.576 336.237 55.352 336.549 55.168C336.861 54.984 337.237 54.844 337.677 54.748C338.125 54.644 338.625 54.592 339.177 54.592ZM339.177 57.904C339.929 57.904 340.517 57.804 340.941 57.604C341.365 57.404 341.577 57.112 341.577 56.728C341.577 56.344 341.365 56.056 340.941 55.864C340.517 55.664 339.929 55.564 339.177 55.564C338.425 55.564 337.837 55.664 337.413 55.864C336.997 56.056 336.789 56.344 336.789 56.728C336.789 57.112 336.997 57.404 337.413 57.604C337.837 57.804 338.425 57.904 339.177 57.904ZM351.104 50.116H344.816V49.132H347.336V47.98H348.584V49.132H351.104V50.116ZM353.768 48.076V54.64H352.532V52.336H350.924V51.316H352.532V48.076H353.768ZM350.504 52.528C350.504 52.816 350.44 53.08 350.312 53.32C350.192 53.56 350.016 53.768 349.784 53.944C349.56 54.112 349.292 54.244 348.98 54.34C348.676 54.428 348.336 54.472 347.96 54.472C347.592 54.472 347.252 54.428 346.94 54.34C346.628 54.244 346.356 54.112 346.124 53.944C345.9 53.768 345.724 53.56 345.596 53.32C345.476 53.08 345.416 52.816 345.416 52.528C345.416 52.24 345.476 51.976 345.596 51.736C345.724 51.496 345.9 51.292 346.124 51.124C346.356 50.956 346.628 50.824 346.94 50.728C347.252 50.632 347.592 50.584 347.96 50.584C348.336 50.584 348.676 50.632 348.98 50.728C349.292 50.824 349.56 50.956 349.784 51.124C350.016 51.292 350.192 51.496 350.312 51.736C350.44 51.976 350.504 52.24 350.504 52.528ZM346.592 52.528C346.592 52.84 346.716 53.088 346.964 53.272C347.22 53.456 347.552 53.548 347.96 53.548C348.368 53.548 348.696 53.456 348.944 53.272C349.2 53.088 349.328 52.84 349.328 52.528C349.328 52.224 349.2 51.98 348.944 51.796C348.696 51.612 348.368 51.52 347.96 51.52C347.552 51.52 347.22 51.612 346.964 51.796C346.716 51.98 346.592 52.224 346.592 52.528ZM346.652 55.168H353.768V58.792H346.652V55.168ZM347.864 57.808H352.556V56.14H347.864V57.808ZM365.827 53.584H364.231V58.924H362.983V48.088H364.231V52.54H365.827V53.584ZM360.295 54.076C360.431 53.228 360.515 52.488 360.547 51.856C360.579 51.224 360.595 50.68 360.595 50.224H356.299V49.228H361.807V49.948C361.807 50.428 361.795 51.012 361.771 51.7C361.747 52.388 361.659 53.216 361.507 54.184L360.295 54.076ZM359.083 55.564C359.659 55.54 360.223 55.512 360.775 55.48C361.335 55.44 361.879 55.384 362.407 55.312L362.467 56.224C361.907 56.32 361.335 56.396 360.751 56.452C360.175 56.508 359.603 56.552 359.035 56.584C358.467 56.608 357.911 56.624 357.367 56.632C356.831 56.64 356.327 56.644 355.855 56.644L355.723 55.624C356.059 55.624 356.403 55.624 356.755 55.624C357.115 55.616 357.487 55.608 357.871 55.6V52.336H359.083V55.564ZM379.633 53.38H377.941V58.924H376.705V48.088H377.941V52.36H379.633V53.38ZM373.345 51.232C373.345 51.648 373.409 52.076 373.537 52.516C373.665 52.948 373.845 53.364 374.077 53.764C374.317 54.156 374.605 54.516 374.941 54.844C375.277 55.164 375.649 55.42 376.057 55.612L375.373 56.584C374.765 56.296 374.237 55.876 373.789 55.324C373.341 54.772 372.993 54.144 372.745 53.44C372.505 54.2 372.153 54.884 371.689 55.492C371.233 56.1 370.689 56.556 370.057 56.86L369.349 55.876C369.765 55.676 370.141 55.408 370.477 55.072C370.821 54.728 371.113 54.348 371.353 53.932C371.593 53.508 371.777 53.064 371.905 52.6C372.041 52.136 372.109 51.68 372.109 51.232V50.188H369.745V49.168H375.637V50.188H373.345V51.232ZM389.52 56.02H388.284V48.1H389.52V56.02ZM386.52 54.316C385.896 54.084 385.364 53.76 384.924 53.344C384.492 52.92 384.16 52.42 383.928 51.844C383.68 52.452 383.336 52.992 382.896 53.464C382.456 53.928 381.912 54.28 381.264 54.52L380.628 53.524C381.052 53.364 381.428 53.152 381.756 52.888C382.092 52.624 382.372 52.328 382.596 52C382.82 51.672 382.988 51.32 383.1 50.944C383.22 50.56 383.28 50.168 383.28 49.768V48.688H384.54V49.768C384.54 50.152 384.596 50.528 384.708 50.896C384.828 51.256 385 51.596 385.224 51.916C385.448 52.228 385.72 52.508 386.04 52.756C386.368 52.996 386.74 53.188 387.156 53.332L386.52 54.316ZM389.832 57.712V58.72H382.44V55.276H383.688V57.712H389.832ZM401.628 51.616H400.092V54.196H398.856V48.076H400.092V50.596H401.628V51.616ZM397.116 48.736C397.116 49.44 397 50.088 396.768 50.68C396.544 51.272 396.216 51.808 395.784 52.288C395.352 52.76 394.82 53.172 394.188 53.524C393.564 53.868 392.852 54.148 392.052 54.364L391.572 53.38C392.876 53.044 393.876 52.56 394.572 51.928C395.276 51.296 395.68 50.568 395.784 49.744H392.064V48.736H397.116ZM393.168 54.664H400.092V58.792H393.168V54.664ZM394.392 57.796H398.868V55.648H394.392V57.796ZM407.567 51.988C406.311 51.988 405.351 51.828 404.687 51.508C404.031 51.188 403.703 50.728 403.703 50.128C403.703 49.52 404.031 49.056 404.687 48.736C405.351 48.416 406.311 48.256 407.567 48.256C408.815 48.256 409.771 48.416 410.435 48.736C411.099 49.056 411.431 49.52 411.431 50.128C411.431 50.728 411.099 51.188 410.435 51.508C409.771 51.828 408.815 51.988 407.567 51.988ZM407.567 49.18C406.719 49.18 406.075 49.26 405.635 49.42C405.203 49.58 404.987 49.816 404.987 50.128C404.987 50.432 405.203 50.664 405.635 50.824C406.075 50.984 406.719 51.064 407.567 51.064C408.415 51.064 409.055 50.984 409.487 50.824C409.927 50.664 410.147 50.432 410.147 50.128C410.147 49.816 409.927 49.58 409.487 49.42C409.055 49.26 408.415 49.18 407.567 49.18ZM412.475 52.624V53.608H402.659V52.624H412.475ZM405.071 57.88H411.551V58.828H403.847V56.104H410.027V55.324H403.823V54.388H411.239V56.98H405.071V57.88ZM426.389 50.716V51.736H424.853V54.184H423.617V48.064H424.853V50.716H426.389ZM421.901 48.736C421.901 50.144 421.461 51.312 420.581 52.24C419.701 53.168 418.453 53.836 416.837 54.244L416.369 53.26C417.705 52.924 418.713 52.452 419.393 51.844C420.073 51.236 420.461 50.532 420.557 49.732H416.861V48.736H421.901ZM422.105 55.672C422.137 55.928 422.237 56.18 422.405 56.428C422.581 56.668 422.813 56.892 423.101 57.1C423.397 57.3 423.741 57.476 424.133 57.628C424.533 57.78 424.973 57.892 425.453 57.964L424.997 58.912C424.173 58.792 423.449 58.552 422.825 58.192C422.209 57.832 421.745 57.4 421.433 56.896C421.129 57.4 420.665 57.828 420.041 58.18C419.425 58.532 418.705 58.772 417.881 58.9L417.425 57.952C417.905 57.888 418.345 57.784 418.745 57.64C419.145 57.488 419.489 57.312 419.777 57.112C420.065 56.904 420.293 56.68 420.461 56.44C420.637 56.192 420.741 55.936 420.773 55.672H417.857V54.688H425.009V55.672H422.105ZM427.936 52.24C428.472 52.192 428.96 52.108 429.4 51.988C429.84 51.86 430.216 51.708 430.528 51.532C430.848 51.348 431.1 51.144 431.284 50.92C431.476 50.688 431.588 50.44 431.62 50.176H428.404V49.204H431.704V48.1H432.94V49.204H436.252V50.176H433.024C433.064 50.44 433.176 50.688 433.36 50.92C433.544 51.144 433.792 51.348 434.104 51.532C434.424 51.708 434.8 51.86 435.232 51.988C435.672 52.108 436.16 52.192 436.696 52.24L436.312 53.2C435.368 53.104 434.548 52.9 433.852 52.588C433.164 52.268 432.652 51.852 432.316 51.34C431.98 51.852 431.468 52.268 430.78 52.588C430.092 52.9 429.276 53.104 428.332 53.2L427.936 52.24ZM437.248 53.752V54.748H433.048V56.692H431.812V54.748H427.42V53.752H437.248ZM429.856 57.712H436.156V58.72H428.62V55.72H429.856V57.712ZM348.2 69.984H346.964V62.1H348.2V69.984ZM345.332 68.532C344.708 68.324 344.172 68.02 343.724 67.62C343.276 67.22 342.932 66.752 342.692 66.216C342.452 66.792 342.104 67.3 341.648 67.74C341.2 68.18 340.652 68.508 340.004 68.724L339.356 67.764C339.788 67.62 340.168 67.428 340.496 67.188C340.832 66.948 341.112 66.676 341.336 66.372C341.568 66.068 341.744 65.74 341.864 65.388C341.984 65.036 342.044 64.68 342.044 64.32V63.924H339.692V62.928H345.62V63.924H343.304V64.32C343.304 64.664 343.364 65.004 343.484 65.34C343.604 65.668 343.776 65.976 344 66.264C344.232 66.544 344.512 66.796 344.84 67.02C345.168 67.244 345.54 67.424 345.956 67.56L345.332 68.532ZM348.512 71.712V72.72H341.12V69.264H342.368V71.712H348.512ZM360.367 67.32H359.011V72.936H357.775V62.088H359.011V66.3H360.367V67.32ZM355.951 65.076C355.951 65.5 355.971 65.936 356.011 66.384C356.059 66.832 356.143 67.264 356.263 67.68C356.383 68.088 356.547 68.472 356.755 68.832C356.963 69.192 357.231 69.5 357.559 69.756L356.791 70.644C356.423 70.356 356.123 69.996 355.891 69.564C355.659 69.124 355.479 68.64 355.351 68.112C355.215 68.648 355.027 69.144 354.787 69.6C354.555 70.056 354.235 70.436 353.827 70.74C353.435 70.436 353.119 70.056 352.879 69.6C352.639 69.144 352.455 68.648 352.327 68.112C352.191 68.64 352.007 69.124 351.775 69.564C351.551 69.996 351.255 70.356 350.887 70.644L350.119 69.756C350.447 69.5 350.715 69.192 350.923 68.832C351.131 68.464 351.295 68.072 351.415 67.656C351.535 67.232 351.615 66.8 351.655 66.36C351.703 65.912 351.727 65.484 351.727 65.076V64.116H350.491V63.108H353.623V64.116H352.891V65.076C352.891 65.388 352.903 65.72 352.927 66.072C352.951 66.416 352.995 66.764 353.059 67.116C353.131 67.468 353.227 67.816 353.347 68.16C353.475 68.496 353.639 68.808 353.839 69.096C354.031 68.808 354.187 68.496 354.307 68.16C354.435 67.824 354.531 67.484 354.595 67.14C354.659 66.788 354.703 66.436 354.727 66.084C354.751 65.732 354.763 65.396 354.763 65.076V64.116H354.043V63.108H357.043V64.116H355.951V65.076ZM371.774 64.992V62.1H373.01V70.02H371.774V66.012H369.806V64.992H371.774ZM369.866 68.484C369.266 68.276 368.75 67.972 368.318 67.572C367.894 67.164 367.566 66.692 367.334 66.156C367.094 66.756 366.75 67.28 366.302 67.728C365.854 68.168 365.306 68.5 364.658 68.724L364.022 67.752C364.446 67.608 364.822 67.416 365.15 67.176C365.478 66.928 365.754 66.652 365.978 66.348C366.21 66.036 366.386 65.704 366.506 65.352C366.626 64.992 366.686 64.632 366.686 64.272V63.9H364.394V62.904H370.19V63.9H367.934V64.272C367.934 64.608 367.99 64.94 368.102 65.268C368.214 65.588 368.378 65.892 368.594 66.18C368.81 66.468 369.074 66.728 369.386 66.96C369.706 67.192 370.07 67.38 370.478 67.524L369.866 68.484ZM373.286 71.712V72.72H365.99V69.336H367.226V71.712H373.286ZM383.617 66.48H376.309V62.568H383.617V66.48ZM382.405 63.552H377.521V65.496H382.405V63.552ZM384.889 67.548V68.544H380.689V70.572H379.453V68.544H375.061V67.548H384.889ZM377.497 71.712H383.797V72.72H376.261V69.588H377.497V71.712ZM396.144 67.392H394.5V72.912H393.264V62.076H394.5V66.36H396.144V67.392ZM391.668 63.228C391.668 64.012 391.58 64.772 391.404 65.508C391.228 66.244 390.944 66.94 390.552 67.596C390.16 68.252 389.656 68.864 389.04 69.432C388.424 69.992 387.672 70.496 386.784 70.944L386.1 69.996C388.74 68.636 390.184 66.716 390.432 64.236H386.64V63.228H391.668ZM406.067 62.076V72.936H404.819V62.076H406.067ZM400.643 62.844C401.067 62.844 401.459 62.908 401.819 63.036C402.179 63.164 402.491 63.344 402.755 63.576C403.019 63.8 403.223 64.072 403.367 64.392C403.519 64.712 403.595 65.064 403.595 65.448C403.595 65.832 403.519 66.184 403.367 66.504C403.223 66.824 403.019 67.1 402.755 67.332C402.491 67.556 402.179 67.732 401.819 67.86C401.459 67.988 401.067 68.052 400.643 68.052C400.219 68.052 399.827 67.988 399.467 67.86C399.107 67.732 398.795 67.556 398.531 67.332C398.275 67.1 398.071 66.824 397.919 66.504C397.775 66.184 397.703 65.832 397.703 65.448C397.703 65.064 397.775 64.712 397.919 64.392C398.071 64.072 398.275 63.8 398.531 63.576C398.795 63.344 399.107 63.164 399.467 63.036C399.827 62.908 400.219 62.844 400.643 62.844ZM400.643 63.9C400.139 63.9 399.723 64.04 399.395 64.32C399.075 64.592 398.915 64.968 398.915 65.448C398.915 65.92 399.075 66.296 399.395 66.576C399.723 66.856 400.139 66.996 400.643 66.996C401.147 66.996 401.563 66.856 401.891 66.576C402.219 66.296 402.383 65.92 402.383 65.448C402.383 64.968 402.219 64.592 401.891 64.32C401.563 64.04 401.147 63.9 400.643 63.9ZM397.199 69.624C397.687 69.624 398.215 69.624 398.783 69.624C399.351 69.616 399.935 69.6 400.535 69.576C401.143 69.552 401.755 69.516 402.371 69.468C402.987 69.42 403.587 69.352 404.171 69.264L404.255 70.164C403.655 70.276 403.047 70.364 402.431 70.428C401.823 70.492 401.223 70.54 400.631 70.572C400.039 70.604 399.463 70.624 398.903 70.632C398.351 70.64 397.835 70.644 397.355 70.644L397.199 69.624ZM415.998 67.044C415.742 67.324 415.43 67.54 415.062 67.692C414.694 67.844 414.29 67.92 413.85 67.92C413.442 67.92 413.066 67.856 412.722 67.728C412.378 67.6 412.078 67.42 411.822 67.188C411.574 66.956 411.378 66.684 411.234 66.372C411.09 66.052 411.018 65.7 411.018 65.316C411.018 64.932 411.09 64.58 411.234 64.26C411.378 63.94 411.574 63.664 411.822 63.432C412.078 63.2 412.378 63.02 412.722 62.892C413.066 62.764 413.442 62.7 413.85 62.7C414.306 62.7 414.714 62.78 415.074 62.94C415.434 63.092 415.742 63.304 415.998 63.576H418.614V62.076H419.85V68.472H418.614V67.044H415.998ZM412.194 65.316C412.194 65.78 412.35 66.156 412.662 66.444C412.974 66.732 413.37 66.876 413.85 66.876C414.33 66.876 414.722 66.736 415.026 66.456C415.33 66.176 415.482 65.796 415.482 65.316C415.482 64.836 415.33 64.456 415.026 64.176C414.722 63.888 414.33 63.744 413.85 63.744C413.37 63.744 412.974 63.888 412.662 64.176C412.35 64.456 412.194 64.836 412.194 65.316ZM416.562 64.584C416.594 64.72 416.618 64.848 416.634 64.968C416.65 65.088 416.658 65.204 416.658 65.316C416.658 65.572 416.622 65.816 416.55 66.048H418.614V64.584H416.562ZM416.238 68.712C416.806 68.712 417.314 68.76 417.762 68.856C418.21 68.952 418.594 69.092 418.914 69.276C419.234 69.452 419.478 69.672 419.646 69.936C419.814 70.192 419.898 70.484 419.898 70.812C419.898 71.148 419.814 71.448 419.646 71.712C419.478 71.968 419.234 72.184 418.914 72.36C418.594 72.544 418.21 72.684 417.762 72.78C417.314 72.876 416.806 72.924 416.238 72.924C415.678 72.924 415.17 72.876 414.714 72.78C414.266 72.684 413.882 72.544 413.562 72.36C413.25 72.184 413.01 71.968 412.842 71.712C412.674 71.448 412.59 71.148 412.59 70.812C412.59 70.484 412.674 70.192 412.842 69.936C413.01 69.672 413.25 69.452 413.562 69.276C413.882 69.092 414.266 68.952 414.714 68.856C415.17 68.76 415.678 68.712 416.238 68.712ZM416.238 71.952C417.014 71.952 417.614 71.86 418.038 71.676C418.462 71.484 418.674 71.196 418.674 70.812C418.674 70.452 418.462 70.176 418.038 69.984C417.614 69.784 417.014 69.684 416.238 69.684C415.462 69.684 414.862 69.784 414.438 69.984C414.014 70.176 413.802 70.452 413.802 70.812C413.802 71.196 414.014 71.484 414.438 71.676C414.862 71.86 415.462 71.952 416.238 71.952ZM430.889 62.076V68.496H429.653V67.02H427.085C426.829 67.316 426.509 67.548 426.125 67.716C425.749 67.884 425.333 67.964 424.877 67.956C424.477 67.956 424.105 67.892 423.761 67.764C423.417 67.628 423.117 67.444 422.861 67.212C422.613 66.98 422.417 66.704 422.273 66.384C422.129 66.056 422.057 65.7 422.057 65.316C422.057 64.932 422.129 64.58 422.273 64.26C422.417 63.932 422.613 63.652 422.861 63.42C423.117 63.18 423.417 62.996 423.761 62.868C424.105 62.74 424.477 62.676 424.877 62.676C425.333 62.676 425.749 62.76 426.125 62.928C426.509 63.096 426.829 63.324 427.085 63.612H429.653V62.088L430.889 62.076ZM424.877 66.9C425.357 66.9 425.749 66.756 426.053 66.468C426.365 66.18 426.521 65.796 426.521 65.316C426.521 65.076 426.477 64.86 426.389 64.668C426.309 64.468 426.193 64.3 426.041 64.164C425.897 64.02 425.725 63.912 425.525 63.84C425.325 63.76 425.109 63.72 424.877 63.72C424.645 63.72 424.429 63.76 424.229 63.84C424.029 63.912 423.853 64.02 423.701 64.164C423.557 64.3 423.441 64.468 423.353 64.668C423.273 64.86 423.233 65.076 423.233 65.316C423.233 65.796 423.385 66.18 423.689 66.468C424.001 66.756 424.397 66.9 424.877 66.9ZM429.653 66.012V64.62H427.613C427.637 64.732 427.657 64.844 427.673 64.956C427.689 65.068 427.697 65.188 427.697 65.316C427.697 65.484 427.665 65.716 427.601 66.012H429.653ZM423.581 69.036H430.889V72.936H429.653V70.032H423.581V69.036Z" fill="#4A0B82"/>
<path d="M189.574 1.768V6.904H185.702V8.264H189.574V16.264H191.222V1.768H189.574ZM181.574 4.456H186.486V3.112H179.926V12.728H181.062C183.766 12.728 185.51 12.632 187.51 12.248L187.35 10.92C185.526 11.256 183.91 11.352 181.574 11.352V4.456ZM205.813 1.784H204.165V10.28H205.813V1.784ZM202.821 7.256C200.661 7.704 198.693 7.864 196.453 7.88V2.696H194.805V9.24H196.005C198.501 9.24 200.645 9.064 203.013 8.6L202.821 7.256ZM200.981 10.456C197.973 10.456 196.085 11.544 196.085 13.336C196.085 15.144 197.973 16.232 200.981 16.232C203.989 16.232 205.877 15.144 205.877 13.336C205.877 11.544 203.989 10.456 200.981 10.456ZM200.981 14.904C198.917 14.904 197.733 14.36 197.733 13.336C197.733 12.312 198.917 11.784 200.981 11.784C203.045 11.784 204.229 12.312 204.229 13.336C204.229 14.36 203.045 14.904 200.981 14.904ZM213.358 7.48L213.566 8.824L222.094 8.392C222.014 9.48 221.854 10.584 221.55 11.88L223.182 12.024C223.822 9 223.822 7 223.822 4.904V3.16H213.758V4.488H222.206V4.904C222.206 5.656 222.222 6.376 222.174 7.144L213.358 7.48ZM212.238 13V14.36H225.294V13H212.238ZM236.813 5.064H228.525V9.208H238.813V7.864H230.189V6.312H238.493V2.296H228.493V3.624H236.813V5.064ZM240.045 10.504H226.941V11.832H232.637V16.264H234.301V11.832H240.045V10.504ZM251.979 1.784V7.464H248.875V8.824H251.979V16.248H253.643V1.784H251.979ZM242.235 3.304V4.648H247.259C247.003 7.928 245.355 10.456 241.595 12.328L242.475 13.608C247.387 11.176 248.939 7.544 248.939 3.304H242.235ZM272.388 3.768H267.316V1.976H265.668V3.768H260.564V5.096H272.388V3.768ZM269.7 13.336V10.792C270.724 10.296 271.284 9.592 271.284 8.632C271.284 6.904 269.428 5.896 266.468 5.896C263.524 5.896 261.668 6.904 261.668 8.632C261.668 9.592 262.244 10.328 263.268 10.792V13.336H259.972V14.696H273.06V13.336H269.7ZM266.468 7.176C268.468 7.176 269.604 7.672 269.604 8.632C269.604 9.592 268.468 10.088 266.468 10.088C264.468 10.088 263.348 9.592 263.348 8.632C263.348 7.672 264.468 7.176 266.468 7.176ZM264.9 11.256C265.396 11.336 265.892 11.368 266.468 11.368C267.06 11.368 267.572 11.336 268.068 11.256V13.336H264.9V11.256ZM288.019 7.72H285.891V1.784H284.227V16.232H285.891V9.112H288.019V7.72ZM282.259 9.912C282.659 7.336 282.659 5.544 282.659 4.264V3.304H275.315V4.632H281.043C281.043 5.848 281.011 7.512 280.643 9.768L282.259 9.912ZM279.027 7.448H277.411V11.8C276.387 11.816 275.443 11.832 274.547 11.832L274.723 13.192C277.251 13.192 280.563 13.144 283.539 12.632L283.459 11.416C282.051 11.608 280.563 11.688 279.027 11.752V7.448Z" fill="#4E4B66"/>
</svg>
