<svg width="64" height="64" viewBox="0 0 64 64" fill="none" xmlns="http://www.w3.org/2000/svg">
<path fill-rule="evenodd" clip-rule="evenodd" d="M51 30.5C51 40.7173 42.7173 49 32.5 49C22.2827 49 14 40.7173 14 30.5C14 20.2827 22.2827 12 32.5 12C42.7173 12 51 20.2827 51 30.5ZM53 30.5C53 41.8218 43.8218 51 32.5 51C21.1782 51 12 41.8218 12 30.5C12 19.1782 21.1782 10 32.5 10C43.8218 10 53 19.1782 53 30.5ZM36.7658 30.3858C35.4461 31.4676 34.1805 32.5049 34.616 35.8004H31.452C30.898 31.419 32.4777 29.9663 33.8317 28.7211C34.7362 27.8893 35.54 27.1501 35.54 25.6924C35.54 24.2364 34.868 23.1164 33.3 23.1164C31.732 23.1164 30.64 24.1804 30.5 26.4204H27C27.308 21.4644 30.64 19.8684 33.412 20.0084C36.716 20.1484 39.264 22.0524 39.264 25.4124C39.264 28.3381 37.9915 29.3811 36.7658 30.3858ZM30.976 38.0964H35.064V42.0724H30.976V38.0964Z" fill="#14142A"/>
</svg>
