<svg width="128" height="64" viewBox="0 0 128 64" fill="none" xmlns="http://www.w3.org/2000/svg">
<path fill-rule="evenodd" clip-rule="evenodd" d="M51 30.5C51 40.7173 42.7173 49 32.5 49C22.2827 49 14 40.7173 14 30.5C14 20.2827 22.2827 12 32.5 12C42.7173 12 51 20.2827 51 30.5ZM53 30.5C53 41.8218 43.8218 51 32.5 51C21.1782 51 12 41.8218 12 30.5C12 19.1782 21.1782 10 32.5 10C43.8218 10 53 19.1782 53 30.5ZM36.7658 30.3858C35.4461 31.4676 34.1805 32.5049 34.616 35.8004H31.452C30.898 31.419 32.4777 29.9663 33.8317 28.7211C34.7362 27.8893 35.54 27.1501 35.54 25.6924C35.54 24.2364 34.868 23.1164 33.3 23.1164C31.732 23.1164 30.64 24.1804 30.5 26.4204H27C27.308 21.4644 30.64 19.8684 33.412 20.0084C36.716 20.1484 39.264 22.0524 39.264 25.4124C39.264 28.3381 37.9915 29.3811 36.7658 30.3858ZM30.976 38.0964H35.064V42.0724H30.976V38.0964Z" fill="#14142A"/>
<path fill-rule="evenodd" clip-rule="evenodd" d="M115 30.5C115 40.7173 106.717 49 96.5 49C86.2827 49 78 40.7173 78 30.5C78 20.2827 86.2827 12 96.5 12C106.717 12 115 20.2827 115 30.5ZM117 30.5C117 41.8218 107.822 51 96.5 51C85.1782 51 76 41.8218 76 30.5C76 19.1782 85.1782 10 96.5 10C107.822 10 117 19.1782 117 30.5ZM100.766 30.3858C99.4461 31.4676 98.1805 32.5049 98.616 35.8004H95.452C94.898 31.419 96.4777 29.9663 97.8317 28.7211C98.7362 27.8893 99.54 27.1501 99.54 25.6924C99.54 24.2364 98.868 23.1164 97.3 23.1164C95.732 23.1164 94.64 24.1804 94.5 26.4204H91C91.308 21.4644 94.64 19.8684 97.412 20.0084C100.716 20.1484 103.264 22.0524 103.264 25.4124C103.264 28.3381 101.992 29.3811 100.766 30.3858ZM94.976 38.0964H99.064V42.0724H94.976V38.0964Z" fill="#6E7191"/>
</svg>
