<svg width="64" height="64" viewBox="0 0 64 64" fill="none" xmlns="http://www.w3.org/2000/svg">
<path fill-rule="evenodd" clip-rule="evenodd" d="M19.5 22C21.433 22 23 20.433 23 18.5C23 16.567 21.433 15 19.5 15C17.567 15 16 16.567 16 18.5C16 20.433 17.567 22 19.5 22ZM19.5 24C22.5376 24 25 21.5376 25 18.5C25 15.4624 22.5376 13 19.5 13C16.4624 13 14 15.4624 14 18.5C14 21.5376 16.4624 24 19.5 24ZM20 28C15.0294 28 11 32.0294 11 37V43.5H43C43.5523 43.5 44 43.9477 44 44.5C44 45.0523 43.5523 45.5 43 45.5H10H9V44.5V37C9 30.9249 13.9249 26 20 26C26.0751 26 31 30.9249 31 37V41C31 41.5523 30.5523 42 30 42C29.4477 42 29 41.5523 29 41V37C29 32.0294 24.9706 28 20 28ZM44 32C48.9706 32 53 36.0294 53 41V48.5H34C33.4477 48.5 33 48.9477 33 49.5C33 50.0523 33.4477 50.5 34 50.5H54H55V49.5V41C55 34.9249 50.0751 30 44 30C37.9249 30 33 34.9249 33 41C33 41.5523 33.4477 42 34 42C34.5523 42 35 41.5523 35 41C35 36.0294 39.0294 32 44 32ZM48 22.5C48 24.433 46.433 26 44.5 26C42.567 26 41 24.433 41 22.5C41 20.567 42.567 19 44.5 19C46.433 19 48 20.567 48 22.5ZM50 22.5C50 25.5376 47.5376 28 44.5 28C41.4624 28 39 25.5376 39 22.5C39 19.4624 41.4624 17 44.5 17C47.5376 17 50 19.4624 50 22.5Z" fill="#6E7191"/>
</svg>
