<svg width="128" height="64" viewBox="0 0 128 64" fill="none" xmlns="http://www.w3.org/2000/svg">
<path fill-rule="evenodd" clip-rule="evenodd" d="M19.5 22C21.433 22 23 20.433 23 18.5C23 16.567 21.433 15 19.5 15C17.567 15 16 16.567 16 18.5C16 20.433 17.567 22 19.5 22ZM19.5 24C22.5376 24 25 21.5376 25 18.5C25 15.4624 22.5376 13 19.5 13C16.4624 13 14 15.4624 14 18.5C14 21.5376 16.4624 24 19.5 24ZM20 28C15.0294 28 11 32.0294 11 37V43.5H43C43.5523 43.5 44 43.9477 44 44.5C44 45.0523 43.5523 45.5 43 45.5H10H9V44.5V37C9 30.9249 13.9249 26 20 26C26.0751 26 31 30.9249 31 37V41C31 41.5523 30.5523 42 30 42C29.4477 42 29 41.5523 29 41V37C29 32.0294 24.9706 28 20 28ZM44 32C48.9706 32 53 36.0294 53 41V48.5H34C33.4477 48.5 33 48.9477 33 49.5C33 50.0523 33.4477 50.5 34 50.5H54H55V49.5V41C55 34.9249 50.0751 30 44 30C37.9249 30 33 34.9249 33 41C33 41.5523 33.4477 42 34 42C34.5523 42 35 41.5523 35 41C35 36.0294 39.0294 32 44 32ZM48 22.5C48 24.433 46.433 26 44.5 26C42.567 26 41 24.433 41 22.5C41 20.567 42.567 19 44.5 19C46.433 19 48 20.567 48 22.5ZM50 22.5C50 25.5376 47.5376 28 44.5 28C41.4624 28 39 25.5376 39 22.5C39 19.4624 41.4624 17 44.5 17C47.5376 17 50 19.4624 50 22.5Z" fill="#14142A"/>
<path fill-rule="evenodd" clip-rule="evenodd" d="M83.5 22C85.433 22 87 20.433 87 18.5C87 16.567 85.433 15 83.5 15C81.567 15 80 16.567 80 18.5C80 20.433 81.567 22 83.5 22ZM83.5 24C86.5376 24 89 21.5376 89 18.5C89 15.4624 86.5376 13 83.5 13C80.4624 13 78 15.4624 78 18.5C78 21.5376 80.4624 24 83.5 24ZM84 28C79.0294 28 75 32.0294 75 37V43.5H107C107.552 43.5 108 43.9477 108 44.5C108 45.0523 107.552 45.5 107 45.5H74H73V44.5V37C73 30.9249 77.9249 26 84 26C90.0751 26 95 30.9249 95 37V41C95 41.5523 94.5523 42 94 42C93.4477 42 93 41.5523 93 41V37C93 32.0294 88.9706 28 84 28ZM108 32C112.971 32 117 36.0294 117 41V48.5H98C97.4477 48.5 97 48.9477 97 49.5C97 50.0523 97.4477 50.5 98 50.5H118H119V49.5V41C119 34.9249 114.075 30 108 30C101.925 30 97 34.9249 97 41C97 41.5523 97.4477 42 98 42C98.5523 42 99 41.5523 99 41C99 36.0294 103.029 32 108 32ZM112 22.5C112 24.433 110.433 26 108.5 26C106.567 26 105 24.433 105 22.5C105 20.567 106.567 19 108.5 19C110.433 19 112 20.567 112 22.5ZM114 22.5C114 25.5376 111.538 28 108.5 28C105.462 28 103 25.5376 103 22.5C103 19.4624 105.462 17 108.5 17C111.538 17 114 19.4624 114 22.5Z" fill="#6E7191"/>
</svg>
