<svg width="42" height="42" viewBox="0 0 42 42" fill="none" xmlns="http://www.w3.org/2000/svg">
<path fill-rule="evenodd" clip-rule="evenodd" d="M12.7969 14.75C14.238 14.75 15.4062 13.5817 15.4062 12.1406C15.4062 10.6995 14.238 9.53125 12.7969 9.53125C11.3558 9.53125 10.1875 10.6995 10.1875 12.1406C10.1875 13.5817 11.3558 14.75 12.7969 14.75ZM12.7969 15.75C14.7903 15.75 16.4062 14.134 16.4062 12.1406C16.4062 10.1472 14.7903 8.53125 12.7969 8.53125C10.8035 8.53125 9.1875 10.1472 9.1875 12.1406C9.1875 14.134 10.8035 15.75 12.7969 15.75ZM13.125 18.2188C9.77677 18.2188 7.0625 20.933 7.0625 24.2812V28.7031H28.2188C28.4949 28.7031 28.7188 28.927 28.7188 29.2031C28.7188 29.4793 28.4949 29.7031 28.2188 29.7031H6.5625H6.0625V29.2031V24.2812C6.0625 20.3807 9.22449 17.2188 13.125 17.2188C17.0255 17.2188 20.1875 20.3807 20.1875 24.2812V26.9062C20.1875 27.1824 19.9636 27.4062 19.6875 27.4062C19.4114 27.4062 19.1875 27.1824 19.1875 26.9062V24.2812C19.1875 20.933 16.4732 18.2188 13.125 18.2188ZM28.875 20.8438C32.2232 20.8438 34.9375 23.558 34.9375 26.9062V31.9844H22.3125C22.0364 31.9844 21.8125 32.2082 21.8125 32.4844C21.8125 32.7605 22.0364 32.9844 22.3125 32.9844H35.4375H35.9375V32.4844V26.9062C35.9375 23.0057 32.7755 19.8438 28.875 19.8438C24.9745 19.8438 21.8125 23.0057 21.8125 26.9062C21.8125 27.1824 22.0364 27.4062 22.3125 27.4062C22.5886 27.4062 22.8125 27.1824 22.8125 26.9062C22.8125 23.558 25.5268 20.8438 28.875 20.8438ZM31.8125 14.7656C31.8125 16.2067 30.6442 17.375 29.2031 17.375C27.762 17.375 26.5938 16.2067 26.5938 14.7656C26.5938 13.3245 27.762 12.1562 29.2031 12.1562C30.6442 12.1562 31.8125 13.3245 31.8125 14.7656ZM32.8125 14.7656C32.8125 16.759 31.1965 18.375 29.2031 18.375C27.2097 18.375 25.5938 16.759 25.5938 14.7656C25.5938 12.7722 27.2097 11.1562 29.2031 11.1562C31.1965 11.1562 32.8125 12.7722 32.8125 14.7656Z" fill="#14142A"/>
</svg>
