<svg width="64" height="64" viewBox="0 0 64 64" fill="none" xmlns="http://www.w3.org/2000/svg">
<path fill-rule="evenodd" clip-rule="evenodd" d="M9 18.3143C9 14.836 11.8494 12 15.3846 12H48.6154C52.1506 12 55 14.836 55 18.3143V35.6857C55 39.164 52.1506 42 48.6154 42H31.8889H31.5052L31.22 42.2567L24 48.7547V46.5001V43V42H23H15.3846C11.8494 42 9 39.164 9 35.6857V18.3143ZM15.3846 10C10.763 10 7 13.7134 7 18.3143V35.6857C7 40.2866 10.763 44 15.3846 44H22V46.5001V51.0001V53.2454L23.669 51.7433L32.2727 44H48.6154C53.237 44 57 40.2866 57 35.6857V18.3143C57 13.7134 53.237 10 48.6154 10H15.3846ZM30.401 22.1797L32.1409 17.9322L34.2462 22.3362C34.6993 23.2842 35.6154 23.926 36.6611 24.0282L41.1477 24.4665L37.8833 27.2742C37.0669 27.9763 36.6895 29.0622 36.8943 30.1194L37.8504 35.0532L33.51 32.5248C32.5767 31.9812 31.4233 31.9812 30.49 32.5248L26.4717 34.8655L27.6433 30.2941C27.9372 29.1471 27.5289 27.9344 26.6011 27.1987L23.1546 24.4659L27.8994 24.0299C29.013 23.9276 29.9772 23.2144 30.401 22.1797ZM31.1451 15.087C31.4739 14.2844 32.5986 14.2523 32.9727 15.0348L36.0506 21.4737C36.2017 21.7897 36.507 22.0036 36.8556 22.0377L43.6711 22.7036C44.5471 22.7892 44.8932 23.883 44.2259 24.457L39.1875 28.7905C38.9153 29.0245 38.7895 29.3865 38.8578 29.7389L40.2332 36.8364C40.3967 37.6798 39.4905 38.3231 38.7481 37.8907L32.5033 34.253C32.1922 34.0718 31.8078 34.0718 31.4967 34.253L25.413 37.7969C24.6461 38.2436 23.7206 37.5442 23.9409 36.6845L25.7059 29.7976C25.8039 29.4153 25.6678 29.011 25.3585 28.7658L19.956 24.4821C19.2491 23.9215 19.5874 22.7853 20.4858 22.7027L27.7164 22.0383C28.0876 22.0042 28.409 21.7665 28.5503 21.4215L31.1451 15.087Z" fill="#14142A"/>
</svg>
