<svg width="42" height="42" viewBox="0 0 42 42" fill="none" xmlns="http://www.w3.org/2000/svg">
<path fill-rule="evenodd" clip-rule="evenodd" d="M6.25 12.0187C6.25 9.92907 7.96294 8.21875 10.0962 8.21875H31.9038C34.0371 8.21875 35.75 9.92907 35.75 12.0188V23.4188C35.75 25.5084 34.0371 27.2188 31.9038 27.2188H20.9271H20.5434L20.2582 27.4755L16.0938 31.2234V30.5157V28.2188V27.2188H15.0938H10.0962C7.96294 27.2188 6.25 25.5084 6.25 23.4188V12.0187ZM10.0962 6.21875C6.87646 6.21875 4.25 8.8065 4.25 12.0187V23.4188C4.25 26.631 6.87646 29.2188 10.0962 29.2188H14.0938V30.5157V33.4688V35.7141L15.7627 34.2121L21.3109 29.2188H31.9038C35.1235 29.2188 37.75 26.631 37.75 23.4188V12.0188C37.75 8.8065 35.1235 6.21875 31.9038 6.21875H10.0962ZM20.6659 14.6231L21.1409 13.4634L21.7701 14.7797C22.2233 15.7276 23.1393 16.3694 24.185 16.4716L25.3352 16.584L24.5639 17.2473C23.7475 17.9495 23.3701 19.0354 23.5749 20.0925L23.8762 21.6469L22.51 20.8512C21.5767 20.3075 20.4233 20.3075 19.49 20.8512L18.446 21.4593L18.7515 20.2673C19.0455 19.1202 18.6372 17.9075 17.7093 17.1718L16.9671 16.5833L18.1643 16.4733C19.2778 16.371 20.242 15.6578 20.6659 14.6231ZM20.1451 10.6183C20.4739 9.81567 21.5986 9.78353 21.9727 10.5661L23.5746 13.9171C23.7256 14.2331 24.031 14.447 24.3795 14.4811L27.8586 14.821C28.7346 14.9066 29.0807 16.0005 28.4134 16.5744L25.8681 18.7636C25.5959 18.9977 25.4701 19.3597 25.5384 19.712L26.2589 23.4301C26.4224 24.2736 25.5162 24.9169 24.7738 24.4844L21.5033 22.5793C21.1922 22.3981 20.8078 22.3981 20.4967 22.5793L17.3873 24.3906C16.6204 24.8373 15.6949 24.138 15.9152 23.2783L16.8141 19.7708C16.9121 19.3884 16.776 18.9842 16.4667 18.739L13.7685 16.5995C13.0616 16.0389 13.3999 14.9027 14.2983 14.8201L17.9813 14.4817C18.3525 14.4476 18.6739 14.2099 18.8152 13.865L20.1451 10.6183Z" fill="#14142A"/>
</svg>
