<svg width="128" height="64" viewBox="0 0 128 64" fill="none" xmlns="http://www.w3.org/2000/svg">
<path d="M31.9603 8V7.5H31.4603V8H31.9603ZM43.5416 8H44.0416V7.5H43.5416V8ZM43.5416 11.6735H43.0416V12.1735H43.5416V11.6735ZM48.8604 11.6735H49.3604V11.1735H48.8604V11.6735ZM48.8604 53.999V54.499H49.3604V53.999H48.8604ZM23.4071 53.999V53.499H22.9071V53.999H23.4071ZM23.4071 53.9999V54.4999H23.9071V53.9999H23.4071ZM22.4071 53.9999H21.9071V54.4999H22.4071V53.9999ZM22.4071 53.999H22.9071V53.499H22.4071V53.999ZM31.9603 11.6735V12.1735H32.4603V11.6735H31.9603ZM23.4071 12.7326H23.9071V12.2326H23.4071V12.7326ZM23.4071 52.999H22.9071V53.499H23.4071V52.999ZM22.4071 12.7326V12.2326H21.9071V12.7326H22.4071ZM22.4071 52.999V53.499H22.9071V52.999H22.4071ZM31.9877 12.6735H32.4877V12.1735H31.9877V12.6735ZM31.9877 28.3569H31.4877V29.2911L32.2651 28.7729L31.9877 28.3569ZM33.5424 27.3204L33.2651 26.9044L33.5424 27.3204ZM37.7494 24.5158L38.0267 24.0998L37.7494 23.9149L37.472 24.0998L37.7494 24.5158ZM41.9563 27.3204L42.2336 26.9044L41.9563 27.3204ZM43.511 28.3569L43.2336 28.7729L44.011 29.2911V28.3569H43.511ZM43.511 12.6735V12.1735H43.011V12.6735H43.511ZM47.8604 12.6735H48.3604V12.1735H47.8604V12.6735ZM47.8604 52.999V53.499H48.3604V52.999H47.8604ZM42.5416 11.6735V12.1735H43.0416V11.6735H42.5416ZM42.5416 9H43.0416V8.5H42.5416V9ZM42.511 11.6735V11.1735H42.011V11.6735H42.511ZM42.511 26.4884L42.2336 26.9044L43.011 27.4226V26.4884H42.511ZM41.511 25.8217L41.2336 26.2377L41.511 25.8217ZM37.7494 23.3139L38.0267 22.8979L37.7494 22.713L37.472 22.8979L37.7494 23.3139ZM33.9877 25.8217L34.2651 26.2377L33.9877 25.8217ZM32.9877 26.4884H32.4877V27.4226L33.2651 26.9044L32.9877 26.4884ZM32.9877 11.6735H33.4877V11.1735H32.9877V11.6735ZM32.9603 11.6735H32.4603V12.1735H32.9603V11.6735ZM32.9603 9V8.5H32.4603V9H32.9603ZM32.4603 7.5H31.9603V8.5H32.4603V7.5ZM43.0416 7.5H32.4603V8.5H43.0416V7.5ZM43.5416 7.5H43.0416V8.5H43.5416V7.5ZM44.0416 8.5V8H43.0416V8.5H44.0416ZM44.0416 11.6735V8.5H43.0416V11.6735H44.0416ZM47.8604 11.1735H43.5416V12.1735H47.8604V11.1735ZM48.8604 11.1735H47.8604V12.1735H48.8604V11.1735ZM49.3604 12.6735V11.6735H48.3604V12.6735H49.3604ZM49.3604 52.999V12.6735H48.3604V52.999H49.3604ZM49.3604 53.999V52.999H48.3604V53.999H49.3604ZM47.8604 54.499H48.8604V53.499H47.8604V54.499ZM23.4071 54.499H47.8604V53.499H23.4071V54.499ZM22.9071 53.999V53.9999H23.9071V53.999H22.9071ZM23.4071 53.4999H22.4071V54.4999H23.4071V53.4999ZM22.9071 53.9999V53.999H21.9071V53.9999H22.9071ZM19 54.499H22.4071V53.499H19V54.499ZM14.5 49.999C14.5 52.4842 16.5147 54.499 19 54.499V53.499C17.067 53.499 15.5 51.932 15.5 49.999H14.5ZM14.5 15.6735V49.999H15.5V15.6735H14.5ZM19 11.1735C16.5147 11.1735 14.5 13.1882 14.5 15.6735H15.5C15.5 13.7405 17.067 12.1735 19 12.1735V11.1735ZM31.9603 11.1735H19V12.1735H31.9603V11.1735ZM31.4603 8.5V11.6735H32.4603V8.5H31.4603ZM31.4603 8V8.5H32.4603V8H31.4603ZM22.9071 12.7326V52.999H23.9071V12.7326H22.9071ZM22.4071 13.2326H23.4071V12.2326H22.4071V13.2326ZM22.9071 52.999V12.7326H21.9071V52.999H22.9071ZM22.4071 52.499H19V53.499H22.4071V52.499ZM19 52.499C17.6193 52.499 16.5 51.3797 16.5 49.999H15.5C15.5 51.932 17.067 53.499 19 53.499V52.499ZM16.5 49.999V15.6735H15.5V49.999H16.5ZM16.5 15.6735C16.5 14.2928 17.6193 13.1735 19 13.1735V12.1735C17.067 12.1735 15.5 13.7405 15.5 15.6735H16.5ZM19 13.1735H31.9877V12.1735H19V13.1735ZM31.4877 12.6735V26.4884H32.4877V12.6735H31.4877ZM31.4877 26.4884V28.3569H32.4877V26.4884H31.4877ZM32.2651 28.7729L33.8198 27.7364L33.2651 26.9044L31.7104 27.9408L32.2651 28.7729ZM33.8198 27.7364L38.0267 24.9318L37.472 24.0998L33.2651 26.9044L33.8198 27.7364ZM37.472 24.9318L41.6789 27.7364L42.2336 26.9044L38.0267 24.0998L37.472 24.9318ZM41.6789 27.7364L43.2336 28.7729L43.7883 27.9408L42.2336 26.9044L41.6789 27.7364ZM44.011 28.3569V26.4884H43.011V28.3569H44.011ZM44.011 26.4884V12.6735H43.011V26.4884H44.011ZM43.511 13.1735H47.8604V12.1735H43.511V13.1735ZM47.3604 12.6735V52.999H48.3604V12.6735H47.3604ZM47.8604 52.499H23.4071V53.499H47.8604V52.499ZM43.0416 11.6735V9H42.0416V11.6735H43.0416ZM42.511 12.1735H42.5416V11.1735H42.511V12.1735ZM43.011 12.6735V11.6735H42.011V12.6735H43.011ZM43.011 25.2865V12.6735H42.011V25.2865H43.011ZM43.011 26.4884V25.2865H42.011V26.4884H43.011ZM41.2336 26.2377L42.2336 26.9044L42.7883 26.0723L41.7883 25.4057L41.2336 26.2377ZM37.472 23.73L41.2336 26.2377L41.7883 25.4057L38.0267 22.8979L37.472 23.73ZM34.2651 26.2377L38.0267 23.73L37.472 22.8979L33.7104 25.4057L34.2651 26.2377ZM33.2651 26.9044L34.2651 26.2377L33.7104 25.4057L32.7104 26.0723L33.2651 26.9044ZM32.4877 25.2865V26.4884H33.4877V25.2865H32.4877ZM32.4877 12.6735V25.2865H33.4877V12.6735H32.4877ZM32.4877 11.6735V12.6735H33.4877V11.6735H32.4877ZM32.9603 12.1735H32.9877V11.1735H32.9603V12.1735ZM32.4603 9V11.6735H33.4603V9H32.4603ZM42.5416 8.5H32.9603V9.5H42.5416V8.5Z" fill="#14142A"/>
<path d="M95.9603 8V7.5H95.4603V8H95.9603ZM107.542 8H108.042V7.5H107.542V8ZM107.542 11.6735H107.042V12.1735H107.542V11.6735ZM112.86 11.6735H113.36V11.1735H112.86V11.6735ZM112.86 53.999V54.499H113.36V53.999H112.86ZM87.4071 53.999V53.499H86.9071V53.999H87.4071ZM87.4071 53.9999V54.4999H87.9071V53.9999H87.4071ZM86.4071 53.9999H85.9071V54.4999H86.4071V53.9999ZM86.4071 53.999H86.9071V53.499H86.4071V53.999ZM95.9603 11.6735V12.1735H96.4603V11.6735H95.9603ZM87.4071 12.7326H87.9071V12.2326H87.4071V12.7326ZM87.4071 52.999H86.9071V53.499H87.4071V52.999ZM86.4071 12.7326V12.2326H85.9071V12.7326H86.4071ZM86.4071 52.999V53.499H86.9071V52.999H86.4071ZM95.9877 12.6735H96.4877V12.1735H95.9877V12.6735ZM95.9877 28.3569H95.4877V29.2911L96.2651 28.7729L95.9877 28.3569ZM97.5424 27.3204L97.2651 26.9044L97.5424 27.3204ZM101.749 24.5158L102.027 24.0998L101.749 23.9149L101.472 24.0998L101.749 24.5158ZM105.956 27.3204L106.234 26.9044L105.956 27.3204ZM107.511 28.3569L107.234 28.7729L108.011 29.2911V28.3569H107.511ZM107.511 12.6735V12.1735H107.011V12.6735H107.511ZM111.86 12.6735H112.36V12.1735H111.86V12.6735ZM111.86 52.999V53.499H112.36V52.999H111.86ZM106.542 11.6735V12.1735H107.042V11.6735H106.542ZM106.542 9H107.042V8.5H106.542V9ZM106.511 11.6735V11.1735H106.011V11.6735H106.511ZM106.511 26.4884L106.234 26.9044L107.011 27.4226V26.4884H106.511ZM105.511 25.8217L105.234 26.2377L105.511 25.8217ZM101.749 23.3139L102.027 22.8979L101.749 22.713L101.472 22.8979L101.749 23.3139ZM97.9877 25.8217L98.2651 26.2377L97.9877 25.8217ZM96.9877 26.4884H96.4877V27.4226L97.2651 26.9044L96.9877 26.4884ZM96.9877 11.6735H97.4877V11.1735H96.9877V11.6735ZM96.9603 11.6735H96.4603V12.1735H96.9603V11.6735ZM96.9603 9V8.5H96.4603V9H96.9603ZM96.4603 7.5H95.9603V8.5H96.4603V7.5ZM107.042 7.5H96.4603V8.5H107.042V7.5ZM107.542 7.5H107.042V8.5H107.542V7.5ZM108.042 8.5V8H107.042V8.5H108.042ZM108.042 11.6735V8.5H107.042V11.6735H108.042ZM111.86 11.1735H107.542V12.1735H111.86V11.1735ZM112.86 11.1735H111.86V12.1735H112.86V11.1735ZM113.36 12.6735V11.6735H112.36V12.6735H113.36ZM113.36 52.999V12.6735H112.36V52.999H113.36ZM113.36 53.999V52.999H112.36V53.999H113.36ZM111.86 54.499H112.86V53.499H111.86V54.499ZM87.4071 54.499H111.86V53.499H87.4071V54.499ZM86.9071 53.999V53.9999H87.9071V53.999H86.9071ZM87.4071 53.4999H86.4071V54.4999H87.4071V53.4999ZM86.9071 53.9999V53.999H85.9071V53.9999H86.9071ZM83 54.499H86.4071V53.499H83V54.499ZM78.5 49.999C78.5 52.4842 80.5147 54.499 83 54.499V53.499C81.067 53.499 79.5 51.932 79.5 49.999H78.5ZM78.5 15.6735V49.999H79.5V15.6735H78.5ZM83 11.1735C80.5147 11.1735 78.5 13.1882 78.5 15.6735H79.5C79.5 13.7405 81.067 12.1735 83 12.1735V11.1735ZM95.9603 11.1735H83V12.1735H95.9603V11.1735ZM95.4603 8.5V11.6735H96.4603V8.5H95.4603ZM95.4603 8V8.5H96.4603V8H95.4603ZM86.9071 12.7326V52.999H87.9071V12.7326H86.9071ZM86.4071 13.2326H87.4071V12.2326H86.4071V13.2326ZM86.9071 52.999V12.7326H85.9071V52.999H86.9071ZM86.4071 52.499H83V53.499H86.4071V52.499ZM83 52.499C81.6193 52.499 80.5 51.3797 80.5 49.999H79.5C79.5 51.932 81.067 53.499 83 53.499V52.499ZM80.5 49.999V15.6735H79.5V49.999H80.5ZM80.5 15.6735C80.5 14.2928 81.6193 13.1735 83 13.1735V12.1735C81.067 12.1735 79.5 13.7405 79.5 15.6735H80.5ZM83 13.1735H95.9877V12.1735H83V13.1735ZM95.4877 12.6735V26.4884H96.4877V12.6735H95.4877ZM95.4877 26.4884V28.3569H96.4877V26.4884H95.4877ZM96.2651 28.7729L97.8198 27.7364L97.2651 26.9044L95.7104 27.9408L96.2651 28.7729ZM97.8198 27.7364L102.027 24.9318L101.472 24.0998L97.2651 26.9044L97.8198 27.7364ZM101.472 24.9318L105.679 27.7364L106.234 26.9044L102.027 24.0998L101.472 24.9318ZM105.679 27.7364L107.234 28.7729L107.788 27.9408L106.234 26.9044L105.679 27.7364ZM108.011 28.3569V26.4884H107.011V28.3569H108.011ZM108.011 26.4884V12.6735H107.011V26.4884H108.011ZM107.511 13.1735H111.86V12.1735H107.511V13.1735ZM111.36 12.6735V52.999H112.36V12.6735H111.36ZM111.86 52.499H87.4071V53.499H111.86V52.499ZM107.042 11.6735V9H106.042V11.6735H107.042ZM106.511 12.1735H106.542V11.1735H106.511V12.1735ZM107.011 12.6735V11.6735H106.011V12.6735H107.011ZM107.011 25.2865V12.6735H106.011V25.2865H107.011ZM107.011 26.4884V25.2865H106.011V26.4884H107.011ZM105.234 26.2377L106.234 26.9044L106.788 26.0723L105.788 25.4057L105.234 26.2377ZM101.472 23.73L105.234 26.2377L105.788 25.4057L102.027 22.8979L101.472 23.73ZM98.2651 26.2377L102.027 23.73L101.472 22.8979L97.7104 25.4057L98.2651 26.2377ZM97.2651 26.9044L98.2651 26.2377L97.7104 25.4057L96.7104 26.0723L97.2651 26.9044ZM96.4877 25.2865V26.4884H97.4877V25.2865H96.4877ZM96.4877 12.6735V25.2865H97.4877V12.6735H96.4877ZM96.4877 11.6735V12.6735H97.4877V11.6735H96.4877ZM96.9603 12.1735H96.9877V11.1735H96.9603V12.1735ZM96.4603 9V11.6735H97.4603V9H96.4603ZM106.542 8.5H96.9603V9.5H106.542V8.5Z" fill="#6E7191"/>
</svg>
