<svg width="42" height="42" viewBox="0 0 42 42" fill="none" xmlns="http://www.w3.org/2000/svg">
<path d="M20.8022 5.07812V4.57812H20.3022V5.07812H20.8022ZM28.7462 5.07812H29.2462V4.57812H28.7462V5.07812ZM28.7462 7.66072H28.2462V8.16072H28.7462V7.66072ZM32.0646 7.66072H32.5646V7.16072H32.0646V7.66072ZM32.0646 35.4368V35.9368H32.5646V35.4368H32.0646ZM15.7046 35.4368V34.9368H15.2046V35.4368H15.7046ZM15.7046 35.4374V35.9374H16.2046V35.4374H15.7046ZM14.7046 35.4374H14.2046V35.9374H14.7046V35.4374ZM14.7046 35.4368H15.2046V34.9368H14.7046V35.4368ZM20.8022 7.66072V8.16072H21.3022V7.66072H20.8022ZM31.0646 34.4368V34.9368H31.5646V34.4368H31.0646ZM15.7046 34.4368H15.2046V34.9368H15.7046V34.4368ZM31.0646 8.66072H31.5646V8.16072H31.0646V8.66072ZM28.898 8.66072V8.16072H28.398V8.66072H28.898ZM28.898 19.2515L28.6206 19.6675L29.398 20.1857V19.2515H28.898ZM27.3433 18.215L27.0659 18.631L27.3433 18.215ZM24.7732 16.5016L25.0505 16.0856L24.7732 15.9007L24.4958 16.0856L24.7732 16.5016ZM22.2031 18.215L21.9257 17.799L22.2031 18.215ZM20.6484 19.2515H20.1484V20.1857L20.9257 19.6675L20.6484 19.2515ZM20.6484 8.66072H21.1484V8.16072H20.6484V8.66072ZM15.7046 8.66072V8.16072H15.2046V8.66072H15.7046ZM14.7046 34.4368V34.9368H15.2046V34.4368H14.7046ZM14.7046 8.66072H15.2046V8.16072H14.7046V8.66072ZM27.898 7.66133H28.398V7.16133H27.898V7.66133ZM27.7462 7.66133H27.2462V8.16133H27.7462V7.66133ZM27.898 17.383L27.6206 17.799L28.398 18.3172V17.383H27.898ZM26.898 16.7163L26.6206 17.1323L26.898 16.7163ZM24.7732 15.2998L25.0505 14.8837L24.7732 14.6988L24.4958 14.8837L24.7732 15.2998ZM22.6484 16.7163L22.9257 17.1323H22.9257L22.6484 16.7163ZM21.6484 17.383H21.1484V18.3172L21.9257 17.799L21.6484 17.383ZM21.6484 7.66133V7.16133H21.1484V7.66133H21.6484ZM21.8022 7.66133V8.16133H22.3022V7.66133H21.8022ZM21.8022 6.07812V5.57812H21.3022V6.07812H21.8022ZM27.7462 6.07812H28.2462V5.57812H27.7462V6.07812ZM21.3022 4.57812H20.8022V5.57812H21.3022V4.57812ZM28.2462 4.57812H21.3022V5.57812H28.2462V4.57812ZM28.7462 4.57812H28.2462V5.57812H28.7462V4.57812ZM29.2462 5.57812V5.07812H28.2462V5.57812H29.2462ZM29.2462 7.66072V5.57812H28.2462V7.66072H29.2462ZM28.898 7.16072H28.7462V8.16072H28.898V7.16072ZM31.0646 7.16072H28.898V8.16072H31.0646V7.16072ZM32.0646 7.16072H31.0646V8.16072H32.0646V7.16072ZM32.5646 8.66072V7.66072H31.5646V8.66072H32.5646ZM32.5646 34.4368V8.66072H31.5646V34.4368H32.5646ZM32.5646 35.4368V34.4368H31.5646V35.4368H32.5646ZM31.0646 35.9368H32.0646V34.9368H31.0646V35.9368ZM15.7046 35.9368H31.0646V34.9368H15.7046V35.9368ZM15.2046 35.4368V35.4374H16.2046V35.4368H15.2046ZM15.7046 34.9374H14.7046V35.9374H15.7046V34.9374ZM15.2046 35.4374V35.4368H14.2046V35.4374H15.2046ZM13.8437 35.9368H14.7046V34.9368H13.8437V35.9368ZM9.34375 31.4368C9.34375 33.9221 11.3585 35.9368 13.8437 35.9368V34.9368C11.9108 34.9368 10.3438 33.3698 10.3438 31.4368H9.34375ZM9.34375 11.6607V31.4368H10.3438V11.6607H9.34375ZM13.8438 7.16072C11.3585 7.16072 9.34375 9.17545 9.34375 11.6607H10.3438C10.3438 9.72773 11.9108 8.16072 13.8438 8.16072V7.16072ZM20.6484 7.16072H13.8438V8.16072H20.6484V7.16072ZM20.8022 7.16072H20.6484V8.16072H20.8022V7.16072ZM20.3022 5.57812V7.66072H21.3022V5.57812H20.3022ZM20.3022 5.07812V5.57812H21.3022V5.07812H20.3022ZM31.0646 33.9368H15.7046V34.9368H31.0646V33.9368ZM30.5646 8.66072V34.4368H31.5646V8.66072H30.5646ZM28.898 9.16072H31.0646V8.16072H28.898V9.16072ZM29.398 17.383V8.66072H28.398V17.383H29.398ZM29.398 19.2515V17.383H28.398V19.2515H29.398ZM27.0659 18.631L28.6206 19.6675L29.1753 18.8355L27.6206 17.799L27.0659 18.631ZM24.4958 16.9176L27.0659 18.631L27.6206 17.799L25.0505 16.0856L24.4958 16.9176ZM22.4804 18.631L25.0505 16.9176L24.4958 16.0856L21.9257 17.799L22.4804 18.631ZM20.9257 19.6675L22.4804 18.631L21.9257 17.799L20.371 18.8355L20.9257 19.6675ZM20.1484 17.383V19.2515H21.1484V17.383H20.1484ZM20.1484 8.66072V17.383H21.1484V8.66072H20.1484ZM15.7046 9.16072H20.6484V8.16072H15.7046V9.16072ZM15.2046 8.66072L15.2046 34.4368H16.2046L16.2046 8.66072H15.2046ZM15.2046 34.4368L15.2046 8.66072H14.2046L14.2046 34.4368H15.2046ZM14.7046 33.9368H13.8437V34.9368H14.7046V33.9368ZM13.8437 33.9368C12.463 33.9368 11.3438 32.8175 11.3438 31.4368H10.3438C10.3438 33.3698 11.9108 34.9368 13.8437 34.9368V33.9368ZM11.3438 31.4368V11.6607H10.3438V31.4368H11.3438ZM11.3438 11.6607C11.3438 10.28 12.463 9.16072 13.8438 9.16072V8.16072C11.9108 8.16072 10.3438 9.72773 10.3438 11.6607H11.3438ZM13.8438 9.16072H14.7046V8.16072H13.8438V9.16072ZM27.898 7.16133H27.7462V8.16133H27.898V7.16133ZM28.398 8.66072V7.66133H27.398V8.66072H28.398ZM28.398 16.1811V8.66072H27.398V16.1811H28.398ZM28.398 17.383V16.1811H27.398V17.383H28.398ZM26.6206 17.1323L27.6206 17.799L28.1753 16.9669L27.1753 16.3003L26.6206 17.1323ZM24.4958 15.7158L26.6206 17.1323L27.1753 16.3003L25.0505 14.8837L24.4958 15.7158ZM22.9257 17.1323L25.0505 15.7158L24.4958 14.8837L22.371 16.3003L22.9257 17.1323ZM21.9257 17.799L22.9257 17.1323L22.371 16.3003L21.371 16.9669L21.9257 17.799ZM21.1484 16.1811V17.383H22.1484V16.1811H21.1484ZM21.1484 8.66072V16.1811H22.1484V8.66072H21.1484ZM21.1484 7.66133V8.66072H22.1484V7.66133H21.1484ZM21.8022 7.16133H21.6484V8.16133H21.8022V7.16133ZM21.3022 6.07812V7.66133H22.3022V6.07812H21.3022ZM27.7462 5.57812H21.8022V6.57812H27.7462V5.57812ZM28.2462 7.66133V6.07812H27.2462V7.66133H28.2462Z" fill="#14142A"/>
</svg>
